<svg xmlns="http://www.w3.org/2000/svg" viewBox="0 0 865.7 417.81"><defs><style>.cls-1{fill:#ecf0f1;}.cls-2{fill:#213140;}.cls-3{fill:#375667;opacity:0.4;}.cls-4{fill:#d0d3d6;}.cls-5{fill:#00a8e2;}.cls-6{fill:#fff;}.cls-7{fill:#9c0;}.cls-8{fill:#e80f42;}.cls-9{fill:#00aae4;}.cls-10{fill:#30bdee;}.cls-11{fill:#030404;}.cls-12{fill:#f6ecee;}.cls-13{fill:#050605;}.cls-14{fill:#e81b44;}.cls-15{fill:#f8eef1;}.cls-16{fill:#9aca3c;}.cls-17{fill:#ececec;}</style></defs><title>logo</title><g id="Layer_2" data-name="Layer 2"><g id="Layer_1-2" data-name="Layer 1"><rect class="cls-1" x="229.41" y="162.86" width="73.97" height="133.95" rx="4" ry="4" transform="translate(-73.12 137.52) rotate(-25.58)"/><rect class="cls-2" x="234.12" y="175.15" width="61.98" height="103.96" transform="translate(-72.08 136.7) rotate(-25.58)"/><polygon class="cls-3" points="241.4 180.85 303.42 235.39 270.62 166.86 241.4 180.85"/><circle class="cls-4" cx="291.45" cy="282.17" r="5.65" transform="translate(-93.26 153.46) rotate(-25.58)"/><rect class="cls-4" x="233.08" y="172.83" width="14" height="4" transform="translate(-51.95 120.77) rotate(-25.58)"/><rect class="cls-5" x="492.42" y="30.16" width="22.55" height="22.55"/><rect class="cls-6" x="538.33" y="34.71" width="5.06" height="5.06"/><path class="cls-6" d="M532.4,39.77h-5.93V34.71h5.93Zm-11.86,0h-5.93V34.71h5.93Z"/><rect class="cls-6" x="503.63" y="34.71" width="5.06" height="5.06"/><path class="cls-6" d="M508.69,28.78h-5.06V22.85h5.06Zm0-11.86h-5.06V11h5.06Z"/><rect class="cls-6" x="503.63" width="5.06" height="5.06"/><path class="cls-6" d="M532.4,5.06h-5.93V0h5.93Zm-11.86,0h-5.93V0h5.93Z"/><rect class="cls-6" x="538.33" width="5.06" height="5.06"/><path class="cls-6" d="M543.4,28.78h-5.06V22.85h5.06Zm0-11.86h-5.06V11h5.06Z"/><path class="cls-7" d="M29.63,125.27,15.4,131.2l15.79,38,38-15.8L63,138.62a1.64,1.64,0,0,0-.21-.18l0,0a1.57,1.57,0,0,0-.22-.14h0a1.83,1.83,0,0,0-.46-.17l-.08,0-.17,0-.18,0h-.14l-.22,0-.11,0a1.94,1.94,0,0,0-1.48,1.4,6.74,6.74,0,1,1-3.16-7.6,2,2,0,0,0,1.73.11,2.42,2.42,0,0,0,.31-.17l.1-.07.17-.14.1-.1.12-.14.1-.13a.33.33,0,0,0,0-.07,1.68,1.68,0,0,0,.2-.44v0a2,2,0,0,0,.06-.26v0a2.24,2.24,0,0,0,0-.27L53.36,115.4l-14.23,5.92a2,2,0,0,1-2.31-2.87,6.74,6.74,0,1,0-7.6,3.16,2,2,0,0,1,.41,3.66Z"/><rect class="cls-6" x="810.14" y="292.74" width="22.84" height="5.06"/><rect class="cls-6" x="837.32" y="292.74" width="7.61" height="5.06"/><rect class="cls-6" x="830.72" y="281.28" width="34.98" height="5.06"/><polygon class="cls-7" points="673.1 36.99 677.1 45.46 686.04 46.82 679.57 53.42 681.1 62.74 673.1 58.34 665.1 62.74 666.62 53.42 660.15 46.82 669.1 45.46 673.1 36.99"/><path class="cls-7" d="M661.88,67.37,664,54.3l-9.08-9.25,12.54-1.91,5.61-11.88,5.61,11.88,12.54,1.91-9.08,9.25,2.14,13.06L673.1,61.2ZM673.1,55.48l4.79,2.63L677,52.54l3.87-3.95-5.35-.81-2.39-5.07-2.39,5.07-5.35.81,3.87,3.95-.91,5.57Z"/><rect class="cls-6" x="156.07" y="103.48" width="27.66" height="5.06"/><rect class="cls-6" x="166.61" y="93.29" width="27.66" height="5.06"/><rect class="cls-6" x="152.13" y="93.29" width="9.22" height="5.06"/><rect class="cls-6" x="141.59" y="103.48" width="9.22" height="5.06"/><rect class="cls-6" x="674.17" y="178.97" width="24.03" height="5.06"/><rect class="cls-6" x="657.89" y="178.97" width="8.82" height="5.06"/><rect class="cls-6" x="674.17" y="163.3" width="24.03" height="5.06"/><rect class="cls-6" x="657.89" y="163.3" width="8.82" height="5.06"/><path class="cls-6" d="M720.11,357.06c-3.57,0-5.17-3-6.35-5.12-.6-1.1-1.34-2.47-1.9-2.47s-1.3,1.37-1.9,2.47c-1.17,2.16-2.78,5.12-6.34,5.12s-5.18-3-6.35-5.12c-.63-1.16-1.34-2.47-1.9-2.47s-1.3,1.37-1.89,2.47c-1.17,2.16-2.78,5.12-6.34,5.12s-5.18-3-6.35-5.12c-.63-1.16-1.34-2.47-1.9-2.47s-1.27,1.31-1.9,2.47c-1.17,2.16-2.78,5.12-6.35,5.12s-5.18-3-6.35-5.12c-.63-1.16-1.34-2.48-1.9-2.48V344.4c3.57,0,5.18,3,6.35,5.12.63,1.16,1.34,2.48,1.9,2.48s1.27-1.32,1.9-2.48c1.17-2.16,2.78-5.12,6.35-5.12s5.18,3,6.35,5.12c.63,1.16,1.34,2.47,1.9,2.47s1.3-1.37,1.89-2.47c1.17-2.16,2.78-5.12,6.34-5.12s5.17,3,6.35,5.12c.63,1.16,1.34,2.48,1.9,2.48s1.3-1.37,1.89-2.47c1.17-2.16,2.78-5.12,6.35-5.12s5.17,3,6.35,5.12c.6,1.1,1.34,2.47,1.9,2.47Z"/><path class="cls-7" d="M372.59,29.88a2.33,2.33,0,0,1-2.33,2.33h-4.52V41l-11.07-8.75H339.92a2.33,2.33,0,0,1-2.33-2.33V9.49a2.33,2.33,0,0,1,2.33-2.34h30.34a2.34,2.34,0,0,1,2.33,2.34Z"/><path class="cls-6" d="M322.49,59.28V47.83h-2A4.87,4.87,0,0,1,315.64,43V22.57a4.87,4.87,0,0,1,4.86-4.87h30.34a4.87,4.87,0,0,1,4.86,4.87V43a4.87,4.87,0,0,1-4.86,4.86H337ZM320.7,42.76h6.85v6.06l7.66-6.06h15.42v-20H320.7Z"/><path class="cls-6" d="M567.84,118.58a9,9,0,1,1,8.64-9A8.85,8.85,0,0,1,567.84,118.58Zm0-13a4,4,0,1,0,3.8,4A3.89,3.89,0,0,0,567.84,105.57Z"/><path class="cls-6" d="M602.26,99.26a9,9,0,1,1,8.64-9A8.85,8.85,0,0,1,602.26,99.26Zm0-13a4,4,0,1,0,3.8,4A3.89,3.89,0,0,0,602.26,86.26Z"/><path class="cls-6" d="M602.26,137.89a9,9,0,1,1,8.64-9A8.85,8.85,0,0,1,602.26,137.89Zm0-13a4,4,0,1,0,3.8,4A3.89,3.89,0,0,0,602.26,124.89Z"/><polygon class="cls-6" points="594.65 127.62 572.57 114.29 575 109.9 597.07 123.23 594.65 127.62"/><polygon class="cls-6" points="575 109.18 572.57 104.79 594.65 91.47 597.07 95.85 575 109.18"/><path class="cls-5" d="M266.49,133.45h-2.93a1.82,1.82,0,0,1-1.62-1.17L261.4,131a1.84,1.84,0,0,1,.32-2l2.07-2.07a1.22,1.22,0,0,0,0-1.74l-3.19-3.2a1.24,1.24,0,0,0-1.74,0L256.78,124a1.83,1.83,0,0,1-2,.33l-1.32-.55a1.83,1.83,0,0,1-1.17-1.62v-2.92a1.24,1.24,0,0,0-1.23-1.24h-4.52a1.24,1.24,0,0,0-1.24,1.24v2.92a1.83,1.83,0,0,1-1.17,1.62l-1.32.55a1.83,1.83,0,0,1-2-.33L238.8,122a1.24,1.24,0,0,0-1.74,0l-3.2,3.2a1.22,1.22,0,0,0,0,1.74l2.07,2.07a1.85,1.85,0,0,1,.32,2l-.54,1.32a1.83,1.83,0,0,1-1.62,1.17h-2.93a1.24,1.24,0,0,0-1.23,1.23v4.52a1.24,1.24,0,0,0,1.23,1.23h2.93a1.83,1.83,0,0,1,1.62,1.17l.54,1.32a1.85,1.85,0,0,1-.32,2L233.87,147a1.23,1.23,0,0,0,0,1.74l3.2,3.2a1.24,1.24,0,0,0,1.74,0l2.06-2.07a1.83,1.83,0,0,1,2-.32l1.32.54a1.83,1.83,0,0,1,1.17,1.62v2.92a1.24,1.24,0,0,0,1.24,1.23h4.52a1.24,1.24,0,0,0,1.23-1.23v-2.92a1.83,1.83,0,0,1,1.17-1.62l1.32-.54a1.83,1.83,0,0,1,2,.32l2.07,2.07a1.25,1.25,0,0,0,1.74,0l3.19-3.2a1.23,1.23,0,0,0,0-1.74l-2.07-2.07a1.84,1.84,0,0,1-.32-2l.55-1.32a1.82,1.82,0,0,1,1.62-1.17h2.93a1.23,1.23,0,0,0,1.23-1.23v-4.52A1.24,1.24,0,0,0,266.49,133.45Zm-17.67,9.45a6,6,0,1,1,6-6A6,6,0,0,1,248.82,142.9Z"/><path class="cls-6" d="M729.38,175.78a3.74,3.74,0,0,1-3.69-4V152.14a3.74,3.74,0,0,1,3.69-4,4.36,4.36,0,0,1,2.19.62l17,9.82a3.77,3.77,0,0,1,0,6.79l-17,9.81A4.37,4.37,0,0,1,729.38,175.78Zm1.37-21.66v15.67l13.56-7.83Z"/><rect class="cls-6" x="96.8" y="219.53" width="36.91" height="5.06"/><rect class="cls-6" x="140.75" y="219.53" width="12.3" height="5.06"/><rect class="cls-6" x="159.48" y="219.53" width="6.43" height="5.06"/><rect class="cls-8" x="255.15" y="35.53" width="7.3" height="5.06"/><rect class="cls-8" x="248.86" y="25.49" width="7.3" height="5.06" transform="matrix(0.5, -0.87, 0.87, 0.5, 102.01, 232.71)"/><rect class="cls-8" x="238.15" y="24.8" width="5.06" height="7.3" transform="translate(18 124.11) rotate(-29.99)"/><rect class="cls-8" x="231.48" y="36.39" width="7.3" height="5.06"/><rect class="cls-8" x="237.77" y="46.42" width="7.3" height="5.06" transform="translate(78.33 233.57) rotate(-60.01)"/><rect class="cls-8" x="250.73" y="44.87" width="5.06" height="7.3" transform="translate(9.66 133.1) rotate(-29.99)"/><rect class="cls-6" x="762.49" y="225.01" width="5.06" height="8"/><rect class="cls-6" x="752.92" y="230.54" width="5.06" height="8" transform="translate(174.52 771.41) rotate(-59.99)"/><rect class="cls-6" x="751.45" y="243.06" width="8" height="5.06" transform="translate(-21.6 410.56) rotate(-29.99)"/><rect class="cls-6" x="762.49" y="247.12" width="5.06" height="8"/><rect class="cls-6" x="772.06" y="241.59" width="5.06" height="8" transform="translate(174.63 793.64) rotate(-60)"/><rect class="cls-6" x="770.6" y="232" width="8" height="5.06" transform="translate(-13.51 418.65) rotate(-29.99)"/><path class="cls-7" d="M827.91,186.24a7.33,7.33,0,0,0-6.27,3.76,7.35,7.35,0,0,0-6.36-3.61c-4.07,0-7.33,3.64-7.27,8.09a8.22,8.22,0,0,0,.39,2.44c.57,2.51,4.7,6.18,8.53,9.15,1.85,1.43,5,3.56,5,3.58a54.23,54.23,0,0,0,4.88-3.68c3.74-3.06,7.76-6.85,8.27-9.38a8.26,8.26,0,0,0,.33-2.46C835.33,189.68,832,186.16,827.91,186.24Z"/><path class="cls-7" d="M819.37,214.26V211c-1.1-.77-2.79-2-4-2.89-7.42-5.77-9-8.64-9.42-10.48a10.78,10.78,0,0,1-.48-3.09,10.91,10.91,0,0,1,3-7.76,9.48,9.48,0,0,1,6.75-2.89h0a9.86,9.86,0,0,1,6.33,2.26,9.82,9.82,0,0,1,6.27-2.41h.18c5.37,0,9.8,4.67,9.87,10.4a10.83,10.83,0,0,1-.41,3.1c-.38,1.74-1.81,4.74-9.12,10.72a55.49,55.49,0,0,1-5.13,3.86Zm-4-25.33a4.49,4.49,0,0,0-3.23,1.38,5.82,5.82,0,0,0-1.59,4.15,5.71,5.71,0,0,0,.27,1.7l.06.22c.08.36.84,2.45,7.61,7.71,1,.77,2.39,1.76,3.44,2.5.92-.67,2-1.53,3.26-2.55,6.61-5.42,7.32-7.55,7.4-7.92l.06-.22a5.77,5.77,0,0,0,.23-1.7c0-3-2.19-5.4-4.8-5.4a4.82,4.82,0,0,0-4.21,2.48L821.71,195l-2.23-3.69A4.81,4.81,0,0,0,815.36,188.93Z"/><rect class="cls-8" x="78.12" y="352.02" width="24.54" height="5.06"/><rect class="cls-8" x="65.27" y="352.02" width="8.18" height="5.06"/><rect class="cls-8" y="338.08" width="2.53" height="5.06"/><path class="cls-8" d="M71.06,343.15H66.17v-5.06h4.89Zm-9.79,0H56.38v-5.06h4.89Zm-9.79,0H46.59v-5.06h4.89Zm-9.79,0H36.8v-5.06h4.89Zm-9.79,0H27v-5.06H31.9Zm-9.79,0H17.22v-5.06h4.89Zm-9.79,0H7.43v-5.06h4.89Z"/><rect class="cls-8" x="75.96" y="338.08" width="2.53" height="5.06"/><polygon class="cls-5" points="178.75 398.66 166.39 405.79 154.03 412.93 154.03 398.66 154.03 384.39 166.39 391.52 178.75 398.66"/><rect class="cls-7" x="119.2" y="363.97" width="22.55" height="22.55"/><rect class="cls-6" x="165.11" y="368.52" width="5.06" height="5.06"/><path class="cls-6" d="M159.18,373.58h-5.93v-5.06h5.93Zm-11.86,0H141.4v-5.06h5.93Z"/><rect class="cls-6" x="130.41" y="368.52" width="5.06" height="5.06"/><path class="cls-6" d="M135.47,362.59h-5.06v-5.93h5.06Zm0-11.86h-5.06V344.8h5.06Z"/><rect class="cls-6" x="130.41" y="333.81" width="5.06" height="5.06"/><path class="cls-6" d="M159.18,338.87h-5.93v-5.06h5.93Zm-11.86,0H141.4v-5.06h5.93Z"/><rect class="cls-6" x="165.11" y="333.81" width="5.06" height="5.06"/><path class="cls-6" d="M170.17,362.59h-5.06v-5.93h5.06Zm0-11.86h-5.06V344.8h5.06Z"/><circle class="cls-7" cx="178.12" cy="159.42" r="4.75"/><rect class="cls-8" x="651.96" y="260.5" width="15.79" height="5.06" transform="translate(7.27 543.62) rotate(-45)"/><rect class="cls-8" x="657.32" y="255.14" width="5.06" height="15.79" transform="translate(7.27 543.62) rotate(-45)"/><rect class="cls-6" x="89.29" y="268.78" width="15.79" height="5.06" transform="translate(-163.39 148.18) rotate(-45)"/><rect class="cls-6" x="94.65" y="263.42" width="5.06" height="15.79" transform="translate(-163.39 148.2) rotate(-45)"/><rect class="cls-6" x="553.36" y="42" width="14.04" height="5.06" transform="translate(132.65 409.29) rotate(-45)"/><rect class="cls-6" x="557.85" y="37.51" width="5.06" height="14.04" transform="translate(132.67 409.32) rotate(-45)"/><rect class="cls-6" x="671.58" y="307.95" width="4.91" height="5.06"/><rect class="cls-8" x="59.09" y="299.28" width="5.14" height="5.06"/><line class="cls-8" x1="742.13" y1="283.9" x2="728.84" y2="297.2"/><rect class="cls-8" x="726.08" y="288.02" width="18.8" height="5.06" transform="translate(9.97 605.17) rotate(-45)"/><line class="cls-8" x1="742.13" y1="297.2" x2="728.84" y2="283.9"/><rect class="cls-8" x="732.95" y="281.15" width="5.06" height="18.8" transform="translate(9.97 605.17) rotate(-45)"/><path class="cls-8" d="M796.78,399.16c-3.28,0-5.63-1.67-6.13-4.36-.8-4.26,3.55-8.8,8-10.92a13.86,13.86,0,0,1,5.79-1.43c3.28,0,5.63,1.67,6.13,4.35.79,4.27-3.55,8.81-8,10.92A13.87,13.87,0,0,1,796.78,399.16Zm7.7-11.64a9,9,0,0,0-3.64,1c-3.55,1.67-5.4,4.45-5.22,5.4a2.08,2.08,0,0,0,1.15.23,9,9,0,0,0,3.64-1c3.55-1.67,5.4-4.45,5.22-5.41A2.18,2.18,0,0,0,804.49,387.52Z"/><polygon class="cls-8" points="810.72 387.26 805.65 387.26 805.65 343.23 821.8 349.58 821.8 361.4 816.73 361.4 816.73 353.03 810.72 350.67 810.72 387.26"/><rect class="cls-8" x="770.4" y="343.89" width="28.6" height="5.06"/><rect class="cls-8" x="770.4" y="370.96" width="26.43" height="5.06"/><rect class="cls-8" x="770.4" y="384.5" width="14.07" height="5.06"/><rect class="cls-8" x="770.4" y="357.43" width="28.6" height="5.06"/><g id="_Group_" data-name="&lt;Group&gt;"><g id="_Group_2" data-name="&lt;Group&gt;"><g id="_Group_3" data-name="&lt;Group&gt;"><circle id="_Path_" data-name="&lt;Path&gt;" class="cls-9" cx="299.39" cy="316.66" r="3.92" transform="translate(-79.17 100.78) rotate(-16.91)"/><path id="_Path_2" data-name="&lt;Path&gt;" class="cls-9" d="M302.8,318.58a3.92,3.92,0,0,1-.72.92,56.05,56.05,0,0,0,7.36,5.31q1.4-1.13,3-2.16A48.08,48.08,0,0,1,302.8,318.58Z"/></g><g id="_Group_4" data-name="&lt;Group&gt;"><circle id="_Path_3" data-name="&lt;Path&gt;" class="cls-9" cx="343.11" cy="303.37" r="3.92" transform="translate(-73.41 112.92) rotate(-16.91)"/><path id="_Path_4" data-name="&lt;Path&gt;" class="cls-9" d="M341.34,306.86a3.92,3.92,0,0,0,1.11.37,56.05,56.05,0,0,1-3.16,8.51q-1.79-.16-3.68-.14A48.07,48.07,0,0,0,341.34,306.86Z"/></g></g><path id="_Path_5" data-name="&lt;Path&gt;" class="cls-9" d="M346.57,341.4a43.73,43.73,0,0,1-28.89,8.78c3.87,2.62,11.33,8.74,14.32,18.58,4.12,13.55-4.16,15.92,1,30.43s10.69,13.64,12.87,13,2.52-4.93-.14-9.26c-2.46-4,.45-6.44,1.63-7,1.29-.19,5.06.21,5.25,4.91.2,5.07,2.86,8.43,5,7.77s7.26-3,3.47-17.95-12-12.28-16.11-25.83C342,355,344.81,345.74,346.57,341.4Z"/><path id="_Path_6" data-name="&lt;Path&gt;" class="cls-9" d="M323.52,317.5c-14.08,4.28-23.73,14.52-23.24,23.92,4.83,8.09,18.54,11.22,32.62,6.94s23.73-14.52,23.24-23.92C351.32,316.35,337.61,313.22,323.52,317.5Z"/><g id="_Group_5" data-name="&lt;Group&gt;"><path id="_Path_7" data-name="&lt;Path&gt;" class="cls-10" d="M332.36,392.46a9.18,9.18,0,0,0,.81-17.28c.3,6.64-2.61,10.38-1.77,17.52A9.3,9.3,0,0,0,332.36,392.46Z"/><path id="_Path_8" data-name="&lt;Path&gt;" class="cls-10" d="M354.18,378.17c-3.31-3.27-6.8-5.8-9.09-13.13a8.39,8.39,0,0,0,9.09,13.13Z"/><path id="_Path_9" data-name="&lt;Path&gt;" class="cls-10" d="M356.91,391.47a6.9,6.9,0,0,0,5.32,4.77,48.18,48.18,0,0,0-1.11-5.61,29.86,29.86,0,0,0-2.28-6.25A6.9,6.9,0,0,0,356.91,391.47Z"/><path id="_Path_10" data-name="&lt;Path&gt;" class="cls-10" d="M300.63,337.61a6.81,6.81,0,0,0,6.17-10.43A22,22,0,0,0,300.63,337.61Z"/><circle id="_Path_11" data-name="&lt;Path&gt;" class="cls-10" cx="347.28" cy="324.59" r="2.46" transform="translate(-79.4 115.05) rotate(-16.91)"/></g><g id="_Group_6" data-name="&lt;Group&gt;"><path id="_Path_12" data-name="&lt;Path&gt;" class="cls-11" d="M307.54,341.53a115.87,115.87,0,0,0,42.67-13S336.68,359.53,307.54,341.53Z"/><path id="_Path_13" data-name="&lt;Path&gt;" class="cls-6" d="M315.94,340.38l4,2.13,1.78-3.33,3.27,2.06,1-3.13,3.12,2.07,1.18-3.32,3.15,1.78.71-3.05,3.52,1.54.76-3.13,3,1.83,1.42-3.64h-.08A120.47,120.47,0,0,1,315.94,340.38Z"/><path id="_Path_14" data-name="&lt;Path&gt;" class="cls-6" d="M339.62,341.93l-2.72-1.59-.52,3.54-3.06-2-.34,3.77-3-2.74-.53,3.77-3.32-2.6-.94,3A23.89,23.89,0,0,0,339.62,341.93Z"/></g><g id="_Group_7" data-name="&lt;Group&gt;"><g id="_Group_8" data-name="&lt;Group&gt;"><circle id="_Path_15" data-name="&lt;Path&gt;" class="cls-12" cx="318.75" cy="330.13" r="7.02" transform="translate(-82.25 106.99) rotate(-16.91)"/><circle id="_Path_16" data-name="&lt;Path&gt;" class="cls-9" cx="318.75" cy="330.13" r="5.01" transform="translate(-82.25 106.99) rotate(-16.91)"/><circle id="_Path_17" data-name="&lt;Path&gt;" class="cls-13" cx="318.75" cy="330.13" r="3.46" transform="translate(-82.25 106.99) rotate(-16.91)"/><path id="_Path_18" data-name="&lt;Path&gt;" class="cls-12" d="M323.08,327.62a5,5,0,0,0-3.88-2.48,2.35,2.35,0,1,0,3.88,2.48Z"/></g><g id="_Group_9" data-name="&lt;Group&gt;"><circle id="_Path_19" data-name="&lt;Path&gt;" class="cls-12" cx="334.52" cy="325.33" r="7.02" transform="translate(-80.17 111.37) rotate(-16.91)"/><circle id="_Path_20" data-name="&lt;Path&gt;" class="cls-9" cx="334.52" cy="325.33" r="5.01" transform="translate(-80.17 111.37) rotate(-16.91)"/><circle id="_Path_21" data-name="&lt;Path&gt;" class="cls-13" cx="334.52" cy="325.33" r="3.46" transform="translate(-80.17 111.37) rotate(-16.91)"/><path id="_Path_22" data-name="&lt;Path&gt;" class="cls-12" d="M338.85,322.83a5,5,0,0,0-3.88-2.48,2.35,2.35,0,1,0,3.88,2.48Z"/></g></g></g><g id="_Group_10" data-name="&lt;Group&gt;"><path id="_Path_23" data-name="&lt;Path&gt;" class="cls-14" d="M507.36,384.32s4.87,7.36,22.89,12.39c0,0-5.53,11-7.27,14.09s8.11,8.36,11.68,6.69,18.33-18.86,38-62.36c1.67-3.7,5.6-14-3.31-19.91s-28.77-13.57-36.18-16.7-13.91-1.23-20.79,11.21-24.92,53-24.72,61.48c.13,5.38,12.43,8.28,13.7,6S504.71,387.93,507.36,384.32Z"/><g id="_Group_11" data-name="&lt;Group&gt;"><g id="_Group_12" data-name="&lt;Group&gt;"><circle id="_Path_24" data-name="&lt;Path&gt;" class="cls-15" cx="525.28" cy="341.14" r="11.02" transform="translate(-17.16 654.28) rotate(-63)"/><circle id="_Path_25" data-name="&lt;Path&gt;" class="cls-14" cx="525.28" cy="341.14" r="7.86" transform="translate(-17.16 654.28) rotate(-63)"/><circle id="_Path_26" data-name="&lt;Path&gt;" class="cls-13" cx="525.28" cy="341.14" r="5.44" transform="translate(-17.16 654.28) rotate(-63)"/><path id="_Path_27" data-name="&lt;Path&gt;" class="cls-15" d="M532.9,343a7.87,7.87,0,0,0-1.68-7,3.69,3.69,0,1,0,1.68,7Z"/></g><g id="_Group_13" data-name="&lt;Group&gt;"><circle id="_Path_28" data-name="&lt;Path&gt;" class="cls-15" cx="551.95" cy="354.73" r="13.43" transform="translate(-14.7 685.48) rotate(-63)"/><circle id="_Path_29" data-name="&lt;Path&gt;" class="cls-14" cx="551.95" cy="354.73" r="9.59" transform="translate(-14.7 685.48) rotate(-63)"/><circle id="_Path_30" data-name="&lt;Path&gt;" class="cls-13" cx="551.95" cy="354.73" r="6.63" transform="translate(-14.7 685.48) rotate(-63)"/><path id="_Path_31" data-name="&lt;Path&gt;" class="cls-15" d="M561.26,357a9.6,9.6,0,0,0-2.05-8.57,4.49,4.49,0,1,0,2.05,8.57Z"/></g></g><g id="_Group_14" data-name="&lt;Group&gt;"><path id="_Path_32" data-name="&lt;Path&gt;" class="cls-14" d="M512.51,329.44c2.66-4.74,5.26-7.92,7.88-9.85h0s-10.6-10.59,4.12-19c0,0-30.54,4.88-12.06,28.81Z"/><path id="_Path_33" data-name="&lt;Path&gt;" class="cls-14" d="M586.67,331.58c1.49,13.86-8.23,14.75-11.75,14.62a24.44,24.44,0,0,1-2.3,8.91l-1.44,3.16C600.43,358.7,586.67,331.58,586.67,331.58Z"/></g><g id="_Group_15" data-name="&lt;Group&gt;"><path id="_Path_34" data-name="&lt;Path&gt;" class="cls-13" d="M509.79,353.69s30,18.42,44.42,24.37c0,0-8.66,19.12-22.31,12.93S508,379.85,506.22,373.68C503.25,363.54,509.79,353.69,509.79,353.69Z"/><g id="_Group_16" data-name="&lt;Group&gt;"><path id="_Path_35" data-name="&lt;Path&gt;" class="cls-15" d="M549.2,379.41a3,3,0,0,0,4-1.31,3,3,0,0,0,.15-.39C540,372,514.87,356.79,510.46,354.1c-.07.11-.14.22-.2.34a5.13,5.13,0,0,0,7.37,6.63l-.13.23a5.57,5.57,0,0,0,8.92,6.45,7.66,7.66,0,0,0,12.25,7,5.12,5.12,0,0,0,9.4,3.64A3,3,0,0,0,549.2,379.41Z"/><path id="_Path_36" data-name="&lt;Path&gt;" class="cls-15" d="M513.49,374.73c-1.63.06-2.95,2.14-3.82,4a31.76,31.76,0,0,0,4.41,3.3C514.78,379.31,515.41,374.66,513.49,374.73Z"/><path id="_Path_37" data-name="&lt;Path&gt;" class="cls-15" d="M531.89,391a14.74,14.74,0,0,0,1.76.67c1-1.82,2.29-4.49,1.28-6s-4.54,1.72-6.27,3.86Z"/></g></g></g><polygon class="cls-7" points="364.88 245.94 305.62 224.65 315.47 245.33 364 271.11 364.88 245.94"/><g id="_Group_17" data-name="&lt;Group&gt;"><path id="_Path_38" data-name="&lt;Path&gt;" class="cls-16" d="M361,403.54a9.26,9.26,0,0,0,7.35,8.07,121.77,121.77,0,0,0,19,1.27,7,7,0,0,0,6.66-7.06c0-1.23.06-2.53.15-3.79.26-3.76,4.24-6.15,8-5.58,11.78,1.8,36.65,5,55.27,3.57,3.76-.3,6.41,2.23,6,6l-.23,1.9a7.2,7.2,0,0,0,5.9,8c6.47,1,16.63,2,26,.92,3.74-.42,6.72-4.24,6.75-8,.22-35.66,1.61-201.69,8.6-271a9.05,9.05,0,0,0-8-10c-23.54-2.34-87.34-7.46-122.9,1.37-4.87,1.21-8.92,6.73-9.2,11.75C367.95,183,358.44,359.49,361,403.54Z"/><g id="_Group_18" data-name="&lt;Group&gt;"><circle id="_Path_39" data-name="&lt;Path&gt;" class="cls-17" cx="405.81" cy="181.14" r="25.34" transform="translate(196.23 573.02) rotate(-85.92)"/><circle id="_Path_40" data-name="&lt;Path&gt;" class="cls-16" cx="405.81" cy="181.14" r="17.83" transform="translate(196.23 573.02) rotate(-85.92)"/><circle id="_Path_41" data-name="&lt;Path&gt;" class="cls-11" cx="405.81" cy="181.14" r="9.2" transform="translate(196.23 573.02) rotate(-85.92)"/><ellipse id="_Path_42" data-name="&lt;Path&gt;" class="cls-17" cx="398.96" cy="176.18" rx="10.13" ry="7.94" transform="translate(19.11 390.48) rotate(-53.26)"/></g><g id="_Group_19" data-name="&lt;Group&gt;"><circle id="_Path_43" data-name="&lt;Path&gt;" class="cls-17" cx="467.32" cy="183.27" r="25.34" transform="translate(251.24 636.35) rotate(-85.92)"/><circle id="_Path_44" data-name="&lt;Path&gt;" class="cls-16" cx="467.32" cy="183.27" r="17.83" transform="translate(251.24 636.35) rotate(-85.92)"/><circle id="_Path_45" data-name="&lt;Path&gt;" class="cls-11" cx="467.32" cy="183.27" r="9.2" transform="translate(251.24 636.35) rotate(-85.92)"/><ellipse id="_Path_46" data-name="&lt;Path&gt;" class="cls-17" cx="460.48" cy="178.32" rx="10.13" ry="7.94" transform="translate(42.11 440.63) rotate(-53.26)"/></g><path id="_Path_47" data-name="&lt;Path&gt;" class="cls-11" d="M411.43,225.63s27.6-2.11,50.58,7.22c0,0,3.67,100.27-28.08,98S411.43,225.63,411.43,225.63Z"/><path id="_Path_48" data-name="&lt;Path&gt;" class="cls-17" d="M422.47,249.83l12.27-.26,1.64-23a145.8,145.8,0,0,0-15.16-1.08Z"/><path id="_Path_49" data-name="&lt;Path&gt;" class="cls-16" d="M370.08,144.64l-.06,0s-55.72,4.76-58.78,47.66c-2.37,33.22,21,35.69,21,35.69s-24.14-46,35.87-46.66h0C368.91,166.08,369.59,153.38,370.08,144.64Z"/><path id="_Path_50" data-name="&lt;Path&gt;" class="cls-16" d="M509.64,146.08c-.92,10.66-1.73,23-2.44,36.5,54.34,10.3,25.25,50.63,25.25,50.63s23.49.87,25.86-32.35C561,163.76,520.62,149.31,509.64,146.08Z"/></g><rect class="cls-7" x="220.04" y="173.3" width="10.7" height="32.09" rx="2.01" ry="2.01" transform="translate(508.93 110.25) rotate(124.38)"/><rect class="cls-7" x="211.48" y="198.98" width="10.7" height="32.09" rx="2.01" ry="2.01" transform="translate(333.74 -67.08) rotate(67.75)"/><rect class="cls-7" x="221.11" y="210.74" width="10.7" height="32.09" rx="2.01" ry="2.01" transform="translate(309.63 -82.72) rotate(60)"/></g></g></svg>