<svg xmlns="http://www.w3.org/2000/svg" viewBox="0 0 105.52 37.4"><defs><style>.cls-1{fill:#fff;}</style></defs><g id="Layer_2" data-name="Layer 2"><g id="main_sponsors" data-name="main sponsors"><path class="cls-1" d="M24.1,22l-2.49-6.58h-9L10.09,22H7L15.66,0h3l8.61,22Zm-7-18.49-3.5,9.24h7ZM33.26,22.08h-2.7L25.11,6.88h3L32,18.66l3.8-11.78H38.7Zm15.41,0-.34-2a5.92,5.92,0,0,1-4.47,2.36c-2.74,0-4.43-1.65-4.43-4.22,0-3.42,2.7-5.11,8.74-5.7v-.89C48.16,9.67,47,9,45.25,9a9.81,9.81,0,0,0-4.9,1.52L40.18,8a11.91,11.91,0,0,1,5.28-1.44c3.67,0,5.49,1.48,5.49,4.85V22Zm-.55-7.47c-5.32.55-5.91,2.32-5.91,3.38a2.08,2.08,0,0,0,2.24,2c1.44,0,2.41-.84,3.67-2.11Zm11.61,5.36a2.74,2.74,0,0,1-2.11-.8c-.72-.8-.72-1.44-.72-2.83V9.2h4.22l-.21-2.32h-4V1.52l-2.62.42V6.88H52.08V9.2h2.19v7c0,2.41.34,3.17.72,3.8a4.57,4.57,0,0,0,4,2,7.83,7.83,0,0,0,2.11-.34l-.17-2a3.34,3.34,0,0,1-1.22.25M84.67,6.67c-2.15-.42-3.63.8-4.94,2.62l-.34-2.45H77V22h2.7V12.32c1-1.52,1.81-2.45,3-2.83A3.68,3.68,0,0,1,85,9.5s-.34-2.83-.38-2.83M98.47,20a9.4,9.4,0,0,1-5.87,2.24,6.32,6.32,0,0,1-4.85-2c-1.86-1.94-2.07-4.81-2.07-6.46,0-4.31,2.66-7.13,6.54-7.13,3.25,0,5.66,2.74,6,5.91a15.79,15.79,0,0,1,.08,2.32H88.51c.08,2,1.1,4.69,4.05,4.69A9.65,9.65,0,0,0,97.71,18ZM95.6,12.79c0-.59-.42-3.59-3.38-3.59a3.42,3.42,0,0,0-2.66,1.22,3.93,3.93,0,0,0-1,2.36ZM72,22l-.34-1.69a6,6,0,0,1-4.22,2,4.58,4.58,0,0,1-3.93-2.15c-.42-.68-.76-1.44-.76-3.88V6.84h2.66v9.45c0,1.44,0,2.15.72,3a2.76,2.76,0,0,0,2.11.84c1.1,0,2.36-1,3.33-2.11V6.84h2.7V22Z"/><path class="cls-1" d="M3.63,31H6.16v3.59a12,12,0,0,1-1.18.3A7.27,7.27,0,0,1,3.59,35,3.37,3.37,0,0,1,1,34a3.68,3.68,0,0,1-1-2.79,4.48,4.48,0,0,1,.46-2,2.9,2.9,0,0,1,1.35-1.31,4.48,4.48,0,0,1,2-.46A5.36,5.36,0,0,1,6,27.81l-.34.76a4.76,4.76,0,0,0-1.94-.42,2.74,2.74,0,0,0-2.11.8,3.12,3.12,0,0,0-.76,2.24,3.28,3.28,0,0,0,.72,2.28,3,3,0,0,0,2.19.76,6.19,6.19,0,0,0,1.52-.17V31.78H3.63Z"/><path class="cls-1" d="M10.13,35a2.54,2.54,0,0,1-1.94-.76,2.93,2.93,0,0,1-.72-2.07,3,3,0,0,1,.68-2.11,2.21,2.21,0,0,1,1.77-.8,2.11,2.11,0,0,1,1.65.67,2.55,2.55,0,0,1,.59,1.81v.55H8.31a2,2,0,0,0,.51,1.48,1.69,1.69,0,0,0,1.31.51,4.48,4.48,0,0,0,1.77-.38v.76c-.3.13-.59.21-.84.3s-.55,0-.93,0m-.21-5a1.28,1.28,0,0,0-1.06.42,2,2,0,0,0-.46,1.22h2.91A2,2,0,0,0,11,30.39,1.4,1.4,0,0,0,9.92,30"/><path class="cls-1" d="M15.41,34.32a1.29,1.29,0,0,0,.42,0c.13,0,.25,0,.34-.08v.63a1.73,1.73,0,0,1-.42.13,1.89,1.89,0,0,1-.46,0c-1.06,0-1.6-.55-1.6-1.69V30h-.8v-.42l.8-.34L14,28.07h.51v1.27h1.6V30h-1.6v3.25a1,1,0,0,0,.25.76.94.94,0,0,0,.63.34"/><polygon class="cls-1" points="24.23 34.91 20.09 34.91 20.09 27.48 24.23 27.48 24.23 28.24 20.98 28.24 20.98 30.6 24.06 30.6 24.06 31.36 20.98 31.36 20.98 34.06 24.23 34.06 24.23 34.91"/><path class="cls-1" d="M29.55,34.91V31.32A1.14,1.14,0,0,0,28.24,30a1.59,1.59,0,0,0-1.27.46A2.47,2.47,0,0,0,26.55,32v2.91H25.7V29.33h.68l.13.76h.08a2.09,2.09,0,0,1,.72-.63,2.15,2.15,0,0,1,1.06-.21,2.25,2.25,0,0,1,1.52.46,2.11,2.11,0,0,1,.51,1.56v3.63Z"/><path class="cls-1" d="M36.64,29.33v.55l-1,.13a2.29,2.29,0,0,1,.25.46,1.69,1.69,0,0,1,.13.63,1.63,1.63,0,0,1-.55,1.31,2.2,2.2,0,0,1-1.52.51,1.57,1.57,0,0,1-.46,0,.85.85,0,0,0-.55.72.34.34,0,0,0,.17.34,1.19,1.19,0,0,0,.63.13h1a2.28,2.28,0,0,1,1.39.38,1.28,1.28,0,0,1,.46,1.1,1.5,1.5,0,0,1-.76,1.39,3.89,3.89,0,0,1-2.15.46A2.86,2.86,0,0,1,32,37a1.29,1.29,0,0,1-.59-1.14,1.36,1.36,0,0,1,.34-.89,1.54,1.54,0,0,1,.93-.51,1.14,1.14,0,0,1-.34-.3.95.95,0,0,1,0-1,1.68,1.68,0,0,1,.51-.42,1.94,1.94,0,0,1-.72-.59,1.85,1.85,0,0,1-.25-1,1.75,1.75,0,0,1,.55-1.39A2.24,2.24,0,0,1,34,29.25a4.63,4.63,0,0,1,.8.08h1.86m-4.43,6.5a.72.72,0,0,0,.38.68,2,2,0,0,0,1.1.25,3,3,0,0,0,1.56-.3,1,1,0,0,0,.51-.84.67.67,0,0,0-.3-.63,2.07,2.07,0,0,0-1.06-.17h-1a1.38,1.38,0,0,0-.89.25.9.9,0,0,0-.3.76m.46-4.73A1.21,1.21,0,0,0,33,32a1.23,1.23,0,0,0,.93.3c.8,0,1.22-.38,1.22-1.18a1.11,1.11,0,0,0-1.22-1.27,1.31,1.31,0,0,0-.93.34,1.24,1.24,0,0,0-.34.93"/><path class="cls-1" d="M41.19,34.91,41,34.1h0a2,2,0,0,1-1.86.89,1.88,1.88,0,0,1-1.31-.42,1.62,1.62,0,0,1-.46-1.22c0-1.14.89-1.69,2.7-1.77l.93,0v-.3a1.34,1.34,0,0,0-.3-1,1.07,1.07,0,0,0-.89-.3,3.48,3.48,0,0,0-1.56.42L38,29.71a3.21,3.21,0,0,1,.89-.34,3.83,3.83,0,0,1,1-.13,2.13,2.13,0,0,1,1.48.42,1.74,1.74,0,0,1,.46,1.39v3.8h-.59Zm-1.9-.59a1.67,1.67,0,0,0,1.22-.42A1.62,1.62,0,0,0,41,32.67v-.51l-.84,0a3.49,3.49,0,0,0-1.44.3.89.89,0,0,0-.42.84.74.74,0,0,0,.3.68.77.77,0,0,0,.72.3"/><path class="cls-1" d="M48.07,29.33v.55l-1,.13a2.29,2.29,0,0,1,.25.46,1.69,1.69,0,0,1,.13.63,1.63,1.63,0,0,1-.55,1.31,2.2,2.2,0,0,1-1.52.51,1.57,1.57,0,0,1-.46,0,.85.85,0,0,0-.55.72.34.34,0,0,0,.17.34,1.19,1.19,0,0,0,.63.13h1a2.28,2.28,0,0,1,1.39.38,1.28,1.28,0,0,1,.46,1.1,1.5,1.5,0,0,1-.76,1.39,3.89,3.89,0,0,1-2.15.46A2.86,2.86,0,0,1,43.39,37a1.29,1.29,0,0,1-.59-1.14,1.36,1.36,0,0,1,.34-.89,1.54,1.54,0,0,1,.93-.51,1.14,1.14,0,0,1-.34-.3.95.95,0,0,1,0-1,1.68,1.68,0,0,1,.51-.42,1.94,1.94,0,0,1-.72-.59,1.85,1.85,0,0,1-.25-1,1.75,1.75,0,0,1,.55-1.39,2.24,2.24,0,0,1,1.56-.51,4.63,4.63,0,0,1,.8.08h1.86m-4.43,6.5a.72.72,0,0,0,.38.68,2,2,0,0,0,1.1.25,3,3,0,0,0,1.56-.3,1,1,0,0,0,.51-.84.67.67,0,0,0-.3-.63,2.07,2.07,0,0,0-1.06-.17h-1a1.38,1.38,0,0,0-.89.25.9.9,0,0,0-.3.76m.46-4.73a1.21,1.21,0,0,0,.34.89,1.23,1.23,0,0,0,.93.3c.8,0,1.22-.38,1.22-1.18a1.11,1.11,0,0,0-1.22-1.27,1.31,1.31,0,0,0-.93.34,1.24,1.24,0,0,0-.34.93"/><path class="cls-1" d="M51.54,35a2.54,2.54,0,0,1-1.94-.76,2.93,2.93,0,0,1-.72-2.07,3,3,0,0,1,.68-2.11,2.21,2.21,0,0,1,1.77-.8,2.11,2.11,0,0,1,1.65.67,2.55,2.55,0,0,1,.59,1.81v.55H49.72a2,2,0,0,0,.51,1.48,1.69,1.69,0,0,0,1.31.51,4.48,4.48,0,0,0,1.77-.38v.76c-.3.13-.59.21-.84.3s-.55,0-.93,0m-.21-5a1.28,1.28,0,0,0-1.06.42,2,2,0,0,0-.46,1.22h2.91a2,2,0,0,0-.34-1.22A1.4,1.4,0,0,0,51.32,30"/><path class="cls-1" d="M58.8,34.15h0a2.22,2.22,0,0,1-3.42.08,3.15,3.15,0,0,1-.59-2.11A3.39,3.39,0,0,1,55.33,30a2.26,2.26,0,0,1,3.42,0h.08l0-.38V27h.84v7.89H59Zm-1.69.13a1.65,1.65,0,0,0,1.27-.46,2.35,2.35,0,0,0,.38-1.52v-.17a2.84,2.84,0,0,0-.38-1.69,1.48,1.48,0,0,0-1.27-.51,1.29,1.29,0,0,0-1.14.59,2.91,2.91,0,0,0-.38,1.6,2.81,2.81,0,0,0,.38,1.6,1.26,1.26,0,0,0,1.14.55"/><path class="cls-1" d="M65.84,34.32a1.29,1.29,0,0,0,.42,0c.13,0,.25,0,.34-.08v.63a1.73,1.73,0,0,1-.42.13,1.89,1.89,0,0,1-.46,0c-1.06,0-1.6-.55-1.6-1.69V30h-.8v-.42l.8-.34.34-1.18H65v1.27h1.6V30H65v3.25a1,1,0,0,0,.25.76.8.8,0,0,0,.63.34"/><path class="cls-1" d="M72.51,32.12a3,3,0,0,1-.68,2.11,2.45,2.45,0,0,1-1.9.76,2.62,2.62,0,0,1-1.31-.34,2.32,2.32,0,0,1-.89-1,3.37,3.37,0,0,1-.3-1.52A3,3,0,0,1,68.12,30a2.45,2.45,0,0,1,1.9-.76,2.42,2.42,0,0,1,1.86.76,3.23,3.23,0,0,1,.63,2.11m-4.22,0a2.43,2.43,0,0,0,.42,1.6,1.74,1.74,0,0,0,2.53,0,2.59,2.59,0,0,0,.42-1.6,2.51,2.51,0,0,0-.42-1.6A1.49,1.49,0,0,0,70,30a1.36,1.36,0,0,0-1.22.55,2.21,2.21,0,0,0-.46,1.6"/><polygon class="cls-1" points="79.1 34.91 78.25 34.91 78.25 28.24 75.89 28.24 75.89 27.48 81.42 27.48 81.42 28.24 79.06 28.24 79.06 34.91 79.1 34.91"/><path class="cls-1" d="M85.81,34.91l-.17-.8h0a2,2,0,0,1-1.86.89,1.88,1.88,0,0,1-1.31-.42A1.62,1.62,0,0,1,82,33.34c0-1.14.89-1.69,2.7-1.77l.93,0v-.3a1.34,1.34,0,0,0-.3-1,1.13,1.13,0,0,0-.89-.3,3.48,3.48,0,0,0-1.56.42l-.25-.63a3.23,3.23,0,0,1,.89-.34,3.85,3.85,0,0,1,1-.13,2.13,2.13,0,0,1,1.48.42,1.74,1.74,0,0,1,.46,1.39v3.8Zm-1.9-.59a1.67,1.67,0,0,0,1.22-.42,1.62,1.62,0,0,0,.46-1.22v-.51l-.84,0a3.49,3.49,0,0,0-1.43.3.89.89,0,0,0-.42.84.74.74,0,0,0,.3.68.77.77,0,0,0,.72.3"/><rect class="cls-1" x="88.17" y="27.01" width="0.84" height="7.89"/><path class="cls-1" d="M93.15,35a2.54,2.54,0,0,1-1.94-.76,2.93,2.93,0,0,1-.72-2.07,3,3,0,0,1,.67-2.11,2.21,2.21,0,0,1,1.77-.8,2.11,2.11,0,0,1,1.65.67,2.55,2.55,0,0,1,.59,1.81v.55H91.34a2,2,0,0,0,.51,1.48,1.69,1.69,0,0,0,1.31.51,4.48,4.48,0,0,0,1.77-.38v.76c-.3.13-.59.21-.84.3s-.55,0-.93,0m-.25-5a1.28,1.28,0,0,0-1.06.42,2,2,0,0,0-.46,1.22h2.91A2,2,0,0,0,94,30.39,1.28,1.28,0,0,0,92.9,30"/><path class="cls-1" d="M100.41,34.91V31.32a1.39,1.39,0,0,0-.3-1,1.35,1.35,0,0,0-1-.34,1.59,1.59,0,0,0-1.27.46A2.47,2.47,0,0,0,97.46,32v2.91h-.84V29.33h.68l.13.76h0a2.09,2.09,0,0,1,.72-.63,2.15,2.15,0,0,1,1.06-.21,2.25,2.25,0,0,1,1.52.46,2.11,2.11,0,0,1,.51,1.56v3.63Z"/><path class="cls-1" d="M104.76,34.32a1.29,1.29,0,0,0,.42,0c.13,0,.25,0,.34-.08v.63a1.73,1.73,0,0,1-.42.13,1.89,1.89,0,0,1-.46,0c-1.06,0-1.6-.55-1.6-1.69V30h-.8v-.42l.8-.34.34-1.18h.51v1.27h1.6V30h-1.6v3.25a1,1,0,0,0,.25.76.69.69,0,0,0,.63.34"/></g></g></svg>