<?xml version="1.0" encoding="utf-8"?>
<!-- Generator: Adobe Illustrator 21.0.0, SVG Export Plug-In . SVG Version: 6.00 Build 0)  -->
<svg version="1.1" id="Layer_1" xmlns="http://www.w3.org/2000/svg" xmlns:xlink="http://www.w3.org/1999/xlink" x="0px" y="0px"
	 viewBox="0 0 138.2 38.6" style="enable-background:new 0 0 138.2 38.6;" xml:space="preserve">
<style type="text/css">
	.st0{clip-path:url(#SVGID_2_);fill:#FFFFFF;}
	.st1{fill:#FFFFFF;}
</style>
<g>
	<g>
		<defs>
			<rect id="SVGID_1_" width="138.2" height="38.6"/>
		</defs>
		<clipPath id="SVGID_2_">
			<use xlink:href="#SVGID_1_"  style="overflow:visible;"/>
		</clipPath>
		<path class="st0" d="M24,33.4c-2.6,1-4.4,1.4-4.4,1.4c-0.2-0.1-0.3-0.3-0.4-0.4c-0.3-0.3-0.4-0.5-0.4-0.5s2.4-0.6,4.7-1.4
			c2.5-0.9,5-2.5,5-2.5s0.1,0.2,0.1,0.5c0,0.3,0.1,0.5,0.1,0.5S26.8,32.4,24,33.4L24,33.4z M16.8,23.2C10.4,24.9,6.7,24,6.7,24
			s-0.1-0.9-0.2-1.8c0-0.5-0.1-1.5-0.1-1.5s3.9,0.8,9.4-0.6c6.2-1.6,9.3-4.9,9.3-4.9s0.6,0.8,1,1.2c0.3,0.5,1.1,1.6,1.1,1.6
			S23.3,21.6,16.8,23.2L16.8,23.2z M7.2,13.9c0.1-0.6,0.3-1.1,0.3-1.1s1.3,0.2,2.7,0.1c1.4-0.1,2.9-0.5,2.9-0.5l0.7,2.6
			c0,0-1.7,0.6-3.6,0.7c-2,0.1-3.3-0.2-3.3-0.2S7.1,14.4,7.2,13.9L7.2,13.9z M28.5,8.4c0.1-0.4,0.2-0.9,0.2-0.9s1.1,0.8,1.7,1.3
			c0.6,0.5,1.4,1.4,1.4,1.4s-0.1,0.6-0.2,1c-0.1,0.3-0.1,0.5-0.3,0.9c0,0-0.9-0.9-1.6-1.5c-0.6-0.6-1.6-1.3-1.6-1.3
			S28.4,8.8,28.5,8.4L28.5,8.4z M35.8,14.5c-0.6-2.7-1.1-3.6-1.1-3.6s1.3,6.8-4.9,11.9c-0.3-0.8-0.7-1.7-1.2-2.5
			c-0.4-0.8-0.9-1.5-1.4-2.3c2.4-2.1,3.5-4.3,4.1-5.8c0.9,1,1.2,1.6,1.2,1.6s0.3-0.2,0.6-1.2c0.7-2.7-0.2-4.8-0.2-4.8
			S32.5,7.1,31,5.5c-2-2.1-4.3-3.3-4.3-3.3s2.3,2.2,2,5c0,0.1,0,0.2,0,0.3c-0.1-0.1-0.3-0.2-0.4-0.3c-3.3-2-5.8-2.4-5.8-2.4
			s-0.4,3.7-6.6,6.5c-1,0.4-2,0.8-2.8,1l-0.7-2.7c0,0-1.6,0.5-3.3,0.5c-1.5,0-3.7-0.1-3.8-2.6c-0.1-2,2-4.1,2-4.1s-1.4,1-2.5,2.2
			C3.4,7.1,2.2,9.4,2.2,9.4S1.8,10,2,11.1c0.1,0.8,0.8,2.7,2.8,3.7c0.7,0.3,1.4,0.6,2.1,0.7c-0.2,1.4-0.5,3.1-0.4,4.8
			c0,0.1,0,0.2,0,0.3c-1.4-0.2-2.5-0.6-3.3-1.1c-2.6-1.5-2.9-4.7-2.9-4.7s-0.8,4.8,0.7,9c1.1,3.1,2.9,5.4,2.9,5.4s2.9,2.1,7.2,2.2
			c0.9,0,2.9,0.3,6-0.3c0-0.1-0.3-0.6-0.7-1.4c-0.1-0.2-0.2-0.7-0.3-0.7c0.1,0,3.5-0.6,7-2.2c4.4-2,6.7-4.1,6.7-4.1s0.1,0.3,0.4,0.9
			c0.2,0.6,0.5,1.3,0.5,1.3s-2.7,2.4-6,3.9c-4.1,1.8-7.3,2.4-7.5,2.4c0.1,0.2,0.2,0.3,0.3,0.5c0.6,1,1.1,1.7,1.4,2.2
			c-0.6,0.1-1.3,0.3-2,0.3c-5.2,0.7-8.8-1-8.8-1s5.1,3.4,11,3.1c5.2-0.3,9.2-3.1,9.4-3.2c0.1-0.1,0.5-0.3,0.5-0.3s0-0.3,0-1.3
			c0-0.1,0-0.3,0-0.4c2.4-1.7,4.5-3.9,5.4-5.7C35.8,22.3,36.5,17.9,35.8,14.5L35.8,14.5z"/>
		<path class="st0" d="M19.1,2.5c0,0,1.4-0.1,2-0.1c1.7,0,3,0.1,3,0.1s-0.4-0.8-2.4-1.6C20.8,0.4,19.1,0,17.7,0
			c-1.4,0-3.8,0.3-6.2,1.2c-1.3,0.5-2,0.9-2,0.9S9.8,2,10.2,1.9c0.4-0.1,1.3-0.5,3.4-0.8C17.7,0.5,19.1,2.5,19.1,2.5L19.1,2.5z"/>
	</g>
	<path class="st1" d="M50.6,14.3c-0.9,0-1.8,0.2-2.5,0.5v13.6c0.6,0.2,1.4,0.4,2.2,0.4c3.3,0,4.8-2.9,4.8-7.4
		C55,16.9,53.5,14.3,50.6,14.3L50.6,14.3z M50.1,31.4c-2.5,0-4.8-0.6-6.2-1.4V3.4h4.3v9.1c1-0.5,2.3-0.7,3.6-0.7
		c4.6,0,7.6,3.6,7.6,9.3C59.3,27.4,56,31.4,50.1,31.4L50.1,31.4z"/>
	<path class="st1" d="M70.5,14.3c-2.7,0-4.1,2.6-4.1,6.3V21l7.8-1.2C74.2,16.3,73.1,14.3,70.5,14.3L70.5,14.3z M66.7,23.1
		c0.3,3.3,2.2,5.3,5.3,5.3c1.7,0,3.6-0.5,4.7-1.1l1,2.7c-1.5,0.8-3.9,1.4-6.3,1.4c-5.7,0-8.9-4-8.9-9.9c0-5.9,3-9.8,8.2-9.8
		c4.9,0,7.7,3.2,7.7,9.2v0.6L66.7,23.1L66.7,23.1z"/>
	<path class="st1" d="M92.9,31.1v-13c0-2.5-1-3.7-3.6-3.7c-1.1,0-2,0.1-2.8,0.5v16.2h-4.3v-18c2-0.8,4.4-1.4,7.1-1.4
		c5.5,0,7.9,2.3,7.9,6.4v13H92.9L92.9,31.1z"/>
	<path class="st1" d="M101.9,31.1v-19h4.3v19H101.9L101.9,31.1z M104.1,8.8c-1.3,0-2.4-1-2.4-2.1c0-1.2,1.1-2.2,2.4-2.2
		c1.3,0,2.4,1,2.4,2.2C106.5,7.9,105.4,8.8,104.1,8.8L104.1,8.8z"/>
	<path class="st1" d="M116.3,14.8v16.3H112V14.8h-2.1v-2.7h2.1V9.8c0-3.9,2.3-6.4,6.3-6.4c0.5,0,0.7,0,1.1,0.1v2.7h-0.4
		c-1.9,0-2.7,1.3-2.7,3.5v2.4h3.1v2.7H116.3L116.3,14.8z"/>
	<path class="st1" d="M129.4,38.6h-4.5l3.2-7.6l-6.4-19h4.6l3.3,12.5c0.2,0.8,0.4,1.7,0.4,2.7h0.1c0.1-0.9,0.3-1.8,0.5-2.7l3.5-12.5
		h4.1L129.4,38.6L129.4,38.6z"/>
</g>
</svg>
