<?xml version="1.0" encoding="utf-8"?>
<!-- Generator: Adobe Illustrator 21.0.0, SVG Export Plug-In . SVG Version: 6.00 Build 0)  -->
<svg version="1.1" id="Layer_1" xmlns="http://www.w3.org/2000/svg" xmlns:xlink="http://www.w3.org/1999/xlink" x="0px" y="0px"
	 viewBox="0 0 157.6 30.6" style="enable-background:new 0 0 157.6 30.6;" xml:space="preserve">
<style type="text/css">
	.st0{fill:#FFFFFF;}
	.st1{clip-path:url(#SVGID_2_);fill:#FFFFFF;}
</style>
<g>
	<path class="st0" d="M38.9,10.3L38.9,10.3l-0.1-1.6h-4.3V24h4.6v-8.4c0-2.3,1.5-2.8,3.6-2.8V8.2C40.1,8.2,39.3,9.6,38.9,10.3
		L38.9,10.3z"/>
	<path class="st0" d="M81.6,10.3L81.6,10.3l-0.1-1.6h-4.3V24h4.6v-8.4c0-2.3,1.5-2.8,3.6-2.8V8.2C82.7,8.2,81.9,9.6,81.6,10.3
		L81.6,10.3z"/>
	<g>
		<defs>
			<rect id="SVGID_1_" width="157.6" height="30.6"/>
		</defs>
		<clipPath id="SVGID_2_">
			<use xlink:href="#SVGID_1_"  style="overflow:visible;"/>
		</clipPath>
		<path class="st1" d="M56.6,9.5c-0.8-0.7-2.5-1.3-3.9-1.3c-2.7,0-3.7,1.4-4.2,2.2h-0.1V8.7h-4.3V24h4.6v-8.3c0-0.9,0-3.2,2.6-3.2
			c2.4,0,2.4,2.1,2.4,3.2V24h4.6v-9.6C58.3,11.4,57.4,10.2,56.6,9.5L56.6,9.5z"/>
		<path class="st1" d="M146.1,14.6c0.2-0.9,1.1-2.6,3.5-2.6c2.4,0,3.3,1.7,3.5,2.6H146.1L146.1,14.6z M157.6,16.5
			c0-4.7-3.4-8.4-8.1-8.4c-4.7,0-8,3.9-8,8.2c0,4.5,3.7,8.1,8.1,8.1c1.6,0,3.1-0.5,4.4-1.4c1.3-0.9,2.4-2.2,3.1-3.9h-4.7
			c-0.6,0.8-1.4,1.4-2.8,1.4c-1.8,0-3.3-1.1-3.6-2.9h11.5C157.5,17.3,157.6,17.1,157.6,16.5L157.6,16.5z"/>
	</g>
	<path class="st0" d="M138.3,9.5c-0.8-0.7-2.5-1.3-3.9-1.3c-2.7,0-3.7,1.4-4.2,2.2h-0.1V8.7h-4.3V24h4.6v-8.3c0-0.9,0-3.2,2.6-3.2
		c2.4,0,2.4,2.1,2.4,3.2V24h4.6v-9.6C140.1,11.4,139.2,10.2,138.3,9.5L138.3,9.5z"/>
	<polygon class="st0" points="105.8,4.7 101.2,7.4 101.2,8.7 99,8.7 99,12.1 101.2,12.1 101.2,24 105.8,24 105.8,12.1 108,12.1 
		108,8.7 105.8,8.7 105.8,4.7 	"/>
	<path class="st0" d="M93,14.5c-1.2-0.4-2.3-0.8-2.3-1.6c0-0.4,0.3-1,1.3-1c1.3,0,1.4,0.8,1.4,1.2h4.5C97.5,9,94,8.2,92,8.2
		c-3.2,0-5.9,2-5.9,5c0,2.1,1.6,3.4,3.6,4c2.9,1.1,4,1.3,4,2.4c0,0.7-0.8,1.2-1.6,1.2c-0.2,0-1.5,0-1.7-1.4h-4.5
		c0.4,4,3.9,5.1,6.2,5.1c3.4,0,6.2-2,6.2-5.2C98.3,16,95.6,15.2,93,14.5L93,14.5z"/>
	<path class="st0" d="M116.3,20.2c-2,0-3.7-1.6-3.7-3.9c0-2.2,1.7-3.9,3.7-3.9c2,0,3.7,1.6,3.7,3.9C120,18.5,118.3,20.2,116.3,20.2
		L116.3,20.2z M116.3,8.2c-5.6,0-8.3,4.4-8.3,8.1c0,3.8,2.7,8.1,8.3,8.1c5.6,0,8.3-4.4,8.3-8.1C124.5,12.5,121.9,8.2,116.3,8.2
		L116.3,8.2z"/>
	<path class="st0" d="M64.3,14.6c0.2-0.9,1.1-2.6,3.5-2.6s3.3,1.7,3.5,2.6H64.3L64.3,14.6z M75.8,16.5c0-4.7-3.4-8.4-8.1-8.4
		c-4.7,0-8,3.9-8,8.2c0,4.5,3.7,8.1,8.1,8.1c1.6,0,3.1-0.5,4.4-1.4c1.3-0.9,2.4-2.2,3.1-3.9h-4.7c-0.6,0.8-1.4,1.4-2.8,1.4
		c-1.8,0-3.3-1.1-3.6-2.9h11.5C75.8,17.3,75.8,17.1,75.8,16.5L75.8,16.5z"/>
	<path class="st0" d="M25,20.2c-2,0-3.7-1.6-3.7-3.9c0-2.2,1.7-3.9,3.7-3.9c2,0,3.7,1.6,3.7,3.9C28.6,18.5,27,20.2,25,20.2L25,20.2z
		 M25,8.2c-2.4,0-4.3,0.8-5.7,2.1V0L0,11.2v19.4L11.3,24c-3.4-1-5.7-4.1-5.7-7.8c0-4.5,3.5-8.1,8-8.1c2.2,0,4.2,0.8,5.7,2.1
		c1.2,1.1,2.1,2.6,2.4,4.2h-2.4h-2.2c-0.5-1-1.4-2.1-3.3-2.1c-2.2-0.1-3.6,1.7-3.6,3.9c0,2.2,1.4,3.9,3.6,3.9c1.9,0,2.8-1.1,3.3-2
		h2.2h2.4c-0.4,1.6-1.2,3.1-2.5,4.2c1.4,1.3,3.3,2.2,5.7,2.2c5.6,0,8.2-4.4,8.2-8.1C33.2,12.6,30.5,8.2,25,8.2L25,8.2z"/>
</g>
</svg>
