<?xml version="1.0" encoding="utf-8"?>
<!-- Generator: Adobe Illustrator 20.1.0, SVG Export Plug-In . SVG Version: 6.00 Build 0)  -->
<svg version="1.1" id="Layer_1" xmlns="http://www.w3.org/2000/svg" xmlns:xlink="http://www.w3.org/1999/xlink" x="0px" y="0px"
	 viewBox="0 0 239.9 21.1" style="enable-background:new 0 0 239.9 21.1;" xml:space="preserve">
<style type="text/css">
	.st0{fill:#FFFFFF;}
	.st1{fill:#00A7E1;}
	.st2{fill:#98CB00;}
	.st3{fill:#E70F42;}
</style>
<g id="HR_x5F_Tech_x5F_World_x5F_Congress_2_">
	<g>
		<polygon class="st0" points="119.7,20.8 119.7,12.9 112.4,12.9 112.4,20.8 106.2,20.8 106.2,0.3 112.4,0.3 112.4,7.6 119.7,7.6 
			119.7,0.3 125.9,0.3 125.9,20.8 		"/>
		<polygon class="st0" points="50.5,20.8 50.5,5.7 45,5.7 45,0.3 62.2,0.3 62.2,5.7 56.7,5.7 56.7,20.8 		"/>
		<polygon class="st0" points="65.1,20.8 65.1,0.3 80.6,0.3 80.6,5.7 71.3,5.7 71.3,7.7 80.4,7.7 80.4,13.1 71.3,13.1 71.3,15.4 
			80.6,15.4 80.6,20.8 		"/>
		<g>
			<path class="st0" d="M83,10.6C83,4.3,87.9,0,94.3,0c5.4,0,8.1,3.1,9.3,5.9l-5.3,2.5c-0.5-1.6-2.1-3-3.9-3c-3,0-5,2.3-5,5.1
				s2,5.1,5,5.1c1.8,0,3.4-1.4,3.9-3l5.3,2.4c-1.2,2.7-3.9,6-9.3,6C87.9,21.1,83,16.8,83,10.6"/>
			<path class="st0" d="M155.6,10.6c0-6.3,4.9-10.6,11.2-10.6S178,4.3,178,10.6s-4.9,10.6-11.2,10.6S155.6,16.8,155.6,10.6
				 M171.7,10.6c0-2.8-1.9-5.1-4.9-5.1s-4.9,2.3-4.9,5.1s1.9,5.1,4.9,5.1S171.7,13.4,171.7,10.6"/>
			<path class="st0" d="M192.2,20.8l-2.8-6.4h-2.2v6.4h-6.2V0.3h10.9c4.8,0,7.3,3.2,7.3,7c0,3.5-2.1,5.4-3.7,6.2l3.7,7.2H192.2z
				 M192.9,7.3c0-1.1-1-1.6-2-1.6h-3.8v3.2h3.8C191.9,8.9,192.9,8.4,192.9,7.3"/>
			<polygon class="st0" points="202.5,20.8 202.5,0.3 208.6,0.3 208.6,15.4 216.4,15.4 216.4,20.8 			"/>
			<path class="st0" d="M219.6,20.8V0.3h9.1c6.4,0,11.2,3.7,11.2,10.2s-4.8,10.2-11.2,10.2H219.6z M233.7,10.5
				c0-2.8-1.6-4.8-4.9-4.8h-3v9.6h2.9C231.8,15.4,233.7,13.1,233.7,10.5"/>
			<path class="st0" d="M41.3,18.6l-1.1-2.2h0.4L40,15.3h-0.2L39,13.7c1.6-0.8,3.7-2.7,3.7-6.2c0-3.9-2.6-7.1-7.4-7.1h-11v15H24v1.1
				h0.6v2.2h-0.3v2.2h6.3v-2.1h0v-2.3h-0.9v-1h0.6v-0.9h2.5l0.4,0.9h0l0.4,1h0l1,2.3h0.1l0.9,2.1h7.1l-1.1-2.2H41.3z M30.5,9V5.8
				h3.8c1.1,0,2,0.5,2,1.6c0,1.1-1,1.6-2,1.6H30.5z"/>
			<polygon class="st0" points="20.5,15.3 20.9,15.3 20.9,0.3 14.6,0.3 14.6,7.6 7.3,7.6 7.3,0.3 1,0.3 1,15.3 0,15.3 0,16.4 
				2.1,16.4 2.1,18.6 1,18.6 1,20.8 7.3,20.8 7.3,18.6 8.1,18.6 8.1,16.3 6.4,16.3 6.4,15.3 7.3,15.3 7.3,13.1 14.6,13.1 14.6,15.3 
				14.1,15.3 14.1,16.4 15.3,16.4 15.3,18.6 14.6,18.6 14.6,20.8 20.9,20.8 20.9,18.6 21.3,18.6 21.3,16.3 20.5,16.3 			"/>
			<polyline class="st1" points="141.4,10.6 144.5,20.8 138.3,20.8 			"/>
			<polyline class="st2" points="135.2,10.5 132.1,0.3 138.3,0.3 			"/>
			<polyline class="st3" points="147.7,10.5 144.6,0.3 150.8,0.3 			"/>
		</g>
	</g>
</g>
</svg>
