<svg xmlns="http://www.w3.org/2000/svg" viewBox="0 0 295.83 128.98"><defs><style>.cls-1{fill:#fff;}</style></defs><title>Asset 3</title><g id="Layer_2" data-name="Layer 2"><g id="Layer_1-2" data-name="Layer 1"><path class="cls-1" d="M104.71,80.17a1.78,1.78,0,1,1-3.56,0V48.06a1.77,1.77,0,0,1,1.78-1.78h10.42c5.6,0,10,3.25,10,10.21s-4.3,10.27-10,10.27h-8.64Zm0-16.66h8.12c4.24,0,6.91-2.46,6.91-7s-2.72-7-6.91-7h-8.12Z"/><path class="cls-1" d="M132.22,61.31c1-2.41,3.67-4.19,7.28-4.19a1.62,1.62,0,0,1,0,3.25c-4.82,0-7.28,3.35-7.28,8.17V80.27a1.68,1.68,0,0,1-3.35,0V59a1.68,1.68,0,0,1,3.35,0Z"/><path class="cls-1" d="M154.27,57c8.38,0,10,6.65,10,10.21,0,1.52,0,3.35-2.1,3.35H146.89c0,5.19,3,8.54,7.91,8.54a9.65,9.65,0,0,0,6.29-2.25,1.46,1.46,0,0,1,.94-.31,1.52,1.52,0,0,1,1.52,1.52,1.57,1.57,0,0,1-.58,1.21,11.67,11.67,0,0,1-8.17,2.93c-7,0-11.31-3.82-11.31-12.62C143.48,61.52,147.46,57,154.27,57Zm0,3c-4.56,0-7.07,2.93-7.39,7.59H161C161,63.88,159.67,60.05,154.27,60.05Z"/><path class="cls-1" d="M185.55,60.42V45.91a1.68,1.68,0,1,1,3.35,0v26c0,6.91-4.29,10.32-10.27,10.32-6.76,0-10.74-4-10.74-12.62S171.67,57,178.42,57A8.88,8.88,0,0,1,185.55,60.42Zm0,4.24s-2-4.61-6.91-4.61c-4.77,0-7.39,3.09-7.39,9.53s2.57,9.59,7.39,9.59c4,0,6.91-2.31,6.91-7.28Z"/><path class="cls-1" d="M195.35,50.41c0-1.52.73-2.09,2-2.09s2,.58,2,2.09a2,2,0,0,1-4,0ZM199,80.27a1.68,1.68,0,1,1-3.35,0V59A1.68,1.68,0,1,1,199,59Z"/><path class="cls-1" d="M215,57a9.86,9.86,0,0,1,8.07,3.61,1.56,1.56,0,0,1,.37,1A1.49,1.49,0,0,1,222,63.14a1.56,1.56,0,0,1-1.26-.63A6.7,6.7,0,0,0,215,60.05c-4.82,0-7.39,3.09-7.39,9.53s2.57,9.59,7.39,9.59a9.55,9.55,0,0,0,6.08-2.25,1.56,1.56,0,0,1,1-.37,1.52,1.52,0,0,1,1.52,1.52,1.63,1.63,0,0,1-.68,1.31A11.94,11.94,0,0,1,215,82.21c-6.76,0-10.79-4-10.79-12.62S208.29,57,215,57Z"/><path class="cls-1" d="M230.24,52.25a1.72,1.72,0,0,1,1.68-1.68,1.69,1.69,0,0,1,1.68,1.68v5.5H237a1.57,1.57,0,1,1,0,3.14h-3.4V75.35c0,2.25,1.26,3.46,3,3.46a1.57,1.57,0,1,1,0,3.14c-4.14,0-6.39-2.78-6.39-6.6V60.89h-2a1.57,1.57,0,0,1,0-3.14h2Z"/><path class="cls-1" d="M243.18,50.41c0-1.52.73-2.09,2-2.09s2,.58,2,2.09a2,2,0,1,1-4,0Zm3.67,29.86a1.68,1.68,0,1,1-3.35,0V59a1.68,1.68,0,1,1,3.35,0Z"/><path class="cls-1" d="M260.16,80.9l-8.9-21.16a1.92,1.92,0,0,1-.16-.73,1.65,1.65,0,0,1,1.68-1.68,1.59,1.59,0,0,1,1.57,1.1l7.39,18.07,7.39-18.07a1.59,1.59,0,0,1,1.57-1.1A1.65,1.65,0,0,1,272.36,59a1.92,1.92,0,0,1-.16.73L263.3,80.9a1.7,1.7,0,0,1-3.14,0Z"/><path class="cls-1" d="M285.83,57c8.38,0,10,6.65,10,10.21,0,1.52,0,3.35-2.09,3.35h-15.3c0,5.19,3,8.54,7.91,8.54a9.65,9.65,0,0,0,6.29-2.25,1.46,1.46,0,0,1,.94-.31,1.52,1.52,0,0,1,1.52,1.52,1.57,1.57,0,0,1-.58,1.21,11.67,11.67,0,0,1-8.17,2.93c-7,0-11.31-3.82-11.31-12.62C275,61.52,279,57,285.83,57Zm0,3c-4.56,0-7.07,2.93-7.39,7.59h14.09C292.53,63.88,291.22,60.05,285.83,60.05Z"/><path class="cls-1" d="M104.71,109.2v15.09a1.78,1.78,0,0,1-3.56,0V91.75a1.78,1.78,0,1,1,3.56,0v14.19h18.23V91.75a1.78,1.78,0,1,1,3.56,0v32.53a1.78,1.78,0,0,1-3.56,0V109.2Z"/><path class="cls-1" d="M133.74,94.53c0-1.52.73-2.09,2-2.09s2,.58,2,2.09a2,2,0,0,1-4,0Zm3.67,29.86a1.68,1.68,0,0,1-3.35,0V103.12a1.68,1.68,0,0,1,3.35,0Z"/><path class="cls-1" d="M147.57,105.42c1-2.41,3.67-4.19,7.28-4.19a1.62,1.62,0,0,1,0,3.25c-4.82,0-7.28,3.35-7.28,8.17v11.73a1.68,1.68,0,0,1-3.35,0V103.12a1.68,1.68,0,0,1,3.35,0Z"/><path class="cls-1" d="M169.62,101.13c8.38,0,10,6.65,10,10.21,0,1.52,0,3.35-2.1,3.35H162.24c0,5.19,3,8.54,7.91,8.54a9.65,9.65,0,0,0,6.29-2.25,1.46,1.46,0,0,1,.94-.31,1.52,1.52,0,0,1,1.52,1.52,1.57,1.57,0,0,1-.58,1.21,11.67,11.67,0,0,1-8.17,2.93c-7,0-11.31-3.82-11.31-12.62C158.83,105.63,162.81,101.13,169.62,101.13Zm0,3c-4.56,0-7.07,2.93-7.39,7.59h14.09C176.33,108,175,104.17,169.62,104.17Z"/><path class="cls-1" d="M41.2,128.19c-.65-.14-1.34-.3-2.06-.5C39.78,127.88,40.48,128,41.2,128.19Z"/><path class="cls-1" d="M54.68,77c0-8-4.75-12.16-12.06-12.16H28.45V89.21H42.62C50,89.21,54.68,84.92,54.68,77Z"/><path class="cls-1" d="M76.47,88.06C75,86.23,73.25,84,73.28,83.4a10.33,10.33,0,0,1,.92-3.12,18,18,0,0,0,1.5-5.52,31.77,31.77,0,0,0-1.14-10.68C72.9,58,69.12,52.66,63,47.6,58.66,44,49.3,39.27,37.66,39.27a43.59,43.59,0,0,0-17.43,3.67C3.36,50.23.67,66.82.3,70.07c-.8,7.07-.05,13.38,2.5,21.1,1.64,5,6.56,12.84,10,17.78a60.34,60.34,0,0,0,5.54,6l0,0-.37-.38-.08-.06-1.6-1.68c.56.62,1.12,1.16,1.68,1.74.57.35,3.85,2,4.18-1.72V62.25a3.08,3.08,0,0,1,3.11-3.11H43.53C53.31,59.14,61,64.81,61,77c0,12-7.5,17.92-17.46,17.92H28.45V111.2h0v1.11h.05s0,.22-.07.58v2.26s0,0,0,.08a14,14,0,0,0,1.69,5.82l.18.32,0,0c2.32,3.81,7.28,7.39,17.75,7.39h.78l-.26,0L63,129c3.07.07,5.25.2,6.88-1.56,3.35-3.6,2.41-7.41,2-9.56a5.41,5.41,0,0,1-.18-1.33c.06-.39.32-.53.95-.76a2.1,2.1,0,0,0,1.55-1.38,2.89,2.89,0,0,0-.39-2.08c-.22-.45-.35-.73-.26-1a4.08,4.08,0,0,1,.69-1c.6-.74,1.28-1.57.89-2.44a10.68,10.68,0,0,1-.49-3.3l.1-1.14a1.63,1.63,0,0,1,.06-.22,7.06,7.06,0,0,1,2-.82c2.08-.66,4.68-1.49,5.38-3.43C83.1,96.5,79.58,92,76.47,88.06Z"/><path class="cls-1" d="M65.34,12.78c0-2.06-.07-3.73-.13-5.26h2.63L68,10.29H68a6.33,6.33,0,0,1,5.73-3.13c3.9,0,6.82,3.3,6.82,8.19,0,5.79-3.53,8.66-7.32,8.66a5.65,5.65,0,0,1-5-2.53h-.07v8.76h-2.9Zm2.9,4.29a6.6,6.6,0,0,0,.13,1.2,4.52,4.52,0,0,0,4.39,3.43c3.1,0,4.89-2.53,4.89-6.23,0-3.23-1.7-6-4.79-6a4.67,4.67,0,0,0-4.43,3.63,4.75,4.75,0,0,0-.2,1.2Z"/><path class="cls-1" d="M98.87,15.45c0,6-4.13,8.56-8,8.56-4.36,0-7.72-3.2-7.72-8.29,0-5.39,3.53-8.56,8-8.56C95.74,7.16,98.87,10.52,98.87,15.45Zm-12.78.17c0,3.53,2,6.19,4.89,6.19s4.89-2.63,4.89-6.26c0-2.73-1.36-6.19-4.83-6.19S86.09,12.55,86.09,15.61Z"/><path class="cls-1" d="M103.5,7.52l2.13,8.19c.47,1.8.9,3.46,1.2,5.13h.1c.37-1.63.9-3.36,1.43-5.09L111,7.52h2.46l2.5,8.06c.6,1.93,1.07,3.63,1.43,5.26h.1a48.45,48.45,0,0,1,1.23-5.23L121,7.52h2.9l-5.19,16.11h-2.66l-2.46-7.69a53.7,53.7,0,0,1-1.43-5.29h-.07A47.68,47.68,0,0,1,110.63,16L108,23.64h-2.66L100.51,7.52Z"/><path class="cls-1" d="M128.14,16.11c.07,4,2.6,5.59,5.53,5.59a10.59,10.59,0,0,0,4.46-.83l.5,2.1a13,13,0,0,1-5.36,1c-5,0-7.92-3.26-7.92-8.12s2.86-8.69,7.56-8.69c5.26,0,6.66,4.63,6.66,7.59a10.93,10.93,0,0,1-.1,1.36Zm8.59-2.1c0-1.86-.77-4.76-4.06-4.76-3,0-4.26,2.73-4.49,4.76Z"/><path class="cls-1" d="M143.2,12.55c0-1.9,0-3.53-.13-5h2.56l.1,3.16h.13a4.83,4.83,0,0,1,4.46-3.53,3.17,3.17,0,0,1,.83.1V10a4.41,4.41,0,0,0-1-.1c-2.06,0-3.53,1.56-3.93,3.76a8.25,8.25,0,0,0-.13,1.36v8.59h-2.9Z"/><path class="cls-1" d="M155.38,16.11c.07,4,2.6,5.59,5.53,5.59a10.59,10.59,0,0,0,4.46-.83l.5,2.1a13,13,0,0,1-5.36,1c-5,0-7.92-3.26-7.92-8.12s2.86-8.69,7.56-8.69c5.26,0,6.66,4.63,6.66,7.59a10.93,10.93,0,0,1-.1,1.36ZM164,14c0-1.86-.77-4.76-4.06-4.76-3,0-4.26,2.73-4.49,4.76Z"/><path class="cls-1" d="M184.35,0V19.48c0,1.43,0,3.06.13,4.16h-2.63l-.13-2.8h-.07A6,6,0,0,1,176.16,24c-3.9,0-6.89-3.3-6.89-8.19,0-5.36,3.3-8.66,7.22-8.66a5.39,5.39,0,0,1,4.86,2.46h.07V0Zm-2.93,14.08a5.13,5.13,0,0,0-.13-1.23,4.31,4.31,0,0,0-4.23-3.4c-3,0-4.83,2.66-4.83,6.23,0,3.26,1.6,6,4.76,6a4.4,4.4,0,0,0,4.29-3.5,5.05,5.05,0,0,0,.13-1.27Z"/><path class="cls-1" d="M196.14,23.64c.07-1.1.13-2.73.13-4.16V0h2.9V10.12h.07a6,6,0,0,1,5.49-3c4,0,6.82,3.33,6.79,8.22,0,5.76-3.63,8.62-7.23,8.62a5.74,5.74,0,0,1-5.39-3h-.1l-.13,2.66Zm3-6.46a5.49,5.49,0,0,0,.13,1.07,4.52,4.52,0,0,0,4.39,3.43c3.06,0,4.89-2.5,4.89-6.19,0-3.23-1.67-6-4.79-6a4.67,4.67,0,0,0-4.46,3.6,5.88,5.88,0,0,0-.17,1.2Z"/><path class="cls-1" d="M216.05,7.52,219.58,17c.37,1.07.77,2.33,1,3.3h.07c.3-1,.63-2.2,1-3.36l3.2-9.46H228L223.61,19c-2.1,5.53-3.53,8.36-5.53,10.09a7.94,7.94,0,0,1-3.6,1.9l-.73-2.46a7.77,7.77,0,0,0,2.56-1.43,8.88,8.88,0,0,0,2.46-3.26,2.11,2.11,0,0,0,.23-.7,2.55,2.55,0,0,0-.2-.77l-6-14.85Z"/></g></g></svg>