<?xml version="1.0" encoding="utf-8"?>
<!-- Generator: Adobe Illustrator 21.0.0, SVG Export Plug-In . SVG Version: 6.00 Build 0)  -->
<svg version="1.1" id="Layer_1" xmlns="http://www.w3.org/2000/svg" xmlns:xlink="http://www.w3.org/1999/xlink" x="0px" y="0px"
	 viewBox="0 0 266.6 32.1" style="enable-background:new 0 0 266.6 32.1;" xml:space="preserve">
<style type="text/css">
	.st0{fill:#FFFFFF;}
	.st1{fill-rule:evenodd;clip-rule:evenodd;fill:#FFFFFF;}
</style>
<g>
	<path class="st0" d="M154.6,8.8c-2.4,0-4,1.7-4,4.2c0,2.7,2.6,5.4,5.7,8.4l1.8,1.8l1.8-1.8c3.1-3,5.7-5.7,5.7-8.4
		c0-2.5-1.6-4.2-4-4.2c-1,0-2,0.4-2.7,1.2l-0.8,0.8l-0.8-0.8C156.6,9.2,155.6,8.8,154.6,8.8 M158.1,26.3l-3.4-3.3
		c-3.4-3.4-6.3-6.3-6.3-9.9c0-3.7,2.6-6.4,6.2-6.4c1.3,0,2.5,0.4,3.5,1.1c1-0.7,2.2-1.1,3.5-1.1c3.6,0,6.2,2.7,6.2,6.4
		c0,3.6-2.9,6.6-6.3,10L158.1,26.3L158.1,26.3z"/>
	<path class="st0" d="M138,20.8l0.9-1.3c0.7,0.6,1.8,1,2.7,1c0.7,0,1.3-0.3,1.3-0.8c0-0.5-0.4-0.8-1.5-0.9c-1.5-0.3-3.1-0.6-3.1-2.5
		c0-1.6,1.3-2.5,3-2.5c1.6,0,2.6,0.4,3.4,1.1l-0.9,1.3c-0.8-0.5-1.6-0.9-2.3-0.9c-0.7,0-1.1,0.3-1.1,0.7c0,0.5,0.4,0.7,1.4,0.8
		c1.5,0.3,3.2,0.6,3.2,2.4c0,1.9-1.7,2.6-3.5,2.6C139.9,22,138.8,21.5,138,20.8L138,20.8z M132.5,21.9V14h2.4v1.3h0
		c0.4-0.7,1.2-1.5,2.7-1.5h0.1l0,2.1c-0.1,0-0.5,0-0.6,0c-0.9,0-1.6,0.5-2.1,1.1v4.9H132.5L132.5,21.9z M128.8,18
		c0-1.3-0.5-2.4-1.6-2.4c-1.1,0-1.7,1-1.7,2.4c0,1.3,0.4,2.4,1.7,2.4C128.3,20.4,128.8,19.4,128.8,18L128.8,18z M123.1,18
		c0-3.1,2.1-4.1,4-4.1c1.9,0,4,1,4,4.1c0,3-2.1,4.1-4,4.1C125.3,22,123.1,21,123.1,18L123.1,18z M118.1,19.7v-3.9h-1.3V14h1.3v-2.7
		h2.4V14h2v1.7h-2v3.4c0,0.8,0.2,1.1,1.1,1.1c0.3,0,0.6,0,0.8-0.1v1.7c-0.2,0-1,0.1-1.6,0.1C118.4,22,118.1,21.1,118.1,19.7
		L118.1,19.7z M108.8,18c0-3.1,2.2-4.1,4-4.1c2.1,0,3,1.1,3.4,2.4l-2,0.7c-0.3-1-0.8-1.3-1.5-1.3c-1,0-1.6,0.8-1.6,2.4
		c0,1.4,0.4,2.4,1.5,2.4c0.6,0,1.2-0.3,1.5-1.4l2,0.7c-0.5,1.2-1.5,2.4-3.6,2.4C110.9,22,108.8,21,108.8,18L108.8,18z M105.2,19.5
		v-1.5c-1.9,0.2-2.7,0.7-2.7,1.4c0,0.5,0.4,0.8,0.9,0.8C104.3,20.2,104.8,19.9,105.2,19.5L105.2,19.5z M100.3,19.9
		c0-1.8,1.5-2.8,5-3.1v-0.2c0-0.6-0.3-0.9-1.1-0.9c-1,0-1.9,0.4-2.6,1l-1-1.4c0.8-0.7,2-1.4,3.9-1.4c2.2,0,3,1.1,3,3.1v3
		c0,0.9,0.1,1.5,0.2,1.9h-2.4c-0.1-0.3-0.2-0.7-0.2-1.1c-0.7,0.8-1.6,1.3-2.7,1.3C101.3,22,100.3,21.2,100.3,19.9L100.3,19.9z
		 M93.6,21.9V11h7.2v2H96v2.6h3.4v1.9H96v4.3H93.6L93.6,21.9z M85,20.8l0.9-1.3c0.7,0.6,1.8,1,2.7,1c0.7,0,1.3-0.3,1.3-0.8
		c0-0.5-0.4-0.8-1.5-0.9c-1.5-0.3-3.1-0.6-3.1-2.5c0-1.6,1.3-2.5,3-2.5c1.6,0,2.6,0.4,3.4,1.1l-0.9,1.3c-0.8-0.5-1.6-0.9-2.3-0.9
		c-0.7,0-1.1,0.3-1.1,0.7c0,0.5,0.4,0.7,1.4,0.8c1.5,0.3,3.2,0.6,3.2,2.4c0,1.9-1.6,2.6-3.5,2.6C87,22,85.8,21.5,85,20.8L85,20.8z
		 M77.2,20.8l0.9-1.3c0.7,0.6,1.8,1,2.7,1c0.7,0,1.3-0.3,1.3-0.8c0-0.5-0.4-0.8-1.5-0.9c-1.5-0.3-3.1-0.6-3.1-2.5
		c0-1.6,1.3-2.5,3-2.5c1.6,0,2.6,0.4,3.4,1.1l-0.9,1.3c-0.8-0.5-1.6-0.9-2.3-0.9c-0.7,0-1.1,0.3-1.1,0.7c0,0.5,0.4,0.7,1.4,0.8
		c1.5,0.3,3.2,0.6,3.2,2.4c0,1.9-1.6,2.6-3.5,2.6C79.1,22,78,21.5,77.2,20.8L77.2,20.8z M74.4,17.2c-0.1-1.1-0.6-1.6-1.5-1.6
		c-0.7,0-1.4,0.5-1.5,1.6H74.4L74.4,17.2z M69,18c0-3,2.3-4.1,3.9-4.1s3.6,0.8,3.6,4.4v0.4h-5.2c0.1,1.3,0.8,1.8,1.8,1.8
		c0.9,0,1.8-0.5,2.3-0.9l0.9,1.4c-0.9,0.8-2,1.2-3.4,1.2C70.9,22,69,21,69,18L69,18z M61,18c0-3.1,2.2-4.1,3.9-4.1
		c2.1,0,3,1.1,3.4,2.4l-2,0.7c-0.3-1-0.8-1.3-1.5-1.3c-1,0-1.6,0.8-1.6,2.4c0,1.4,0.4,2.4,1.5,2.4c0.6,0,1.2-0.3,1.5-1.4l2,0.7
		c-0.5,1.2-1.5,2.4-3.5,2.4C63,22,61,21,61,18L61,18z M52.8,18c0-3.1,2.2-4.1,4-4.1c2.1,0,3,1.1,3.4,2.4l-2,0.7
		c-0.3-1-0.8-1.3-1.5-1.3c-1,0-1.6,0.8-1.6,2.4c0,1.4,0.4,2.4,1.5,2.4c0.6,0,1.2-0.3,1.5-1.4l2,0.7c-0.5,1.2-1.5,2.4-3.5,2.4
		C54.9,22,52.8,21,52.8,18L52.8,18z M44.2,19.8V14h2.4v5c0,0.7,0.3,1.1,0.9,1.1c0.6,0,1.2-0.3,1.7-0.8V14h2.4v7.8h-2.4v-1.2
		c-0.5,0.6-1.3,1.4-2.7,1.4C45.2,22,44.2,21.4,44.2,19.8L44.2,19.8z M34.1,19.4l1.8-1.1c0.6,1.2,1.7,1.9,2.9,1.9
		c1.1,0,1.9-0.4,1.9-1.3c0-0.8-0.8-1.2-2.2-1.6c-1.9-0.5-4-1-4-3.3c0-2,1.6-3.3,3.9-3.3c2.2,0,3.6,1.1,4.3,2.2l-1.7,1.3
		c-0.6-0.9-1.6-1.5-2.7-1.5c-1,0-1.6,0.4-1.6,1.1c0,0.9,0.8,1.2,2.2,1.6c1.9,0.5,3.9,1.1,3.9,3.4c0,1.8-1.3,3.3-4.4,3.3
		C36.3,22.1,34.9,21,34.1,19.4L34.1,19.4z M23,16.2h1.6c1.5,0,2-0.6,2-1.6c0-1-0.5-1.6-2-1.6H23V16.2L23,16.2z M20.6,21.9V11h4
		c2.3,0,4.4,0.6,4.4,3.5c0,2.9-2.3,3.5-4.5,3.5H23v3.9H20.6L20.6,21.9z M13.1,17.7h2.6L14.4,14h0L13.1,17.7L13.1,17.7z M9.4,21.9
		l3.9-10.9h2.3l3.9,10.9H17l-0.8-2.4h-3.7l-0.8,2.4H9.4L9.4,21.9z M0,19.4l1.8-1.1c0.6,1.2,1.7,1.9,2.9,1.9c1.1,0,1.9-0.4,1.9-1.3
		c0-0.8-0.8-1.2-2.2-1.6c-1.9-0.5-4-1-4-3.3c0-2,1.6-3.3,3.9-3.3c2.2,0,3.6,1.1,4.3,2.2l-1.7,1.3c-0.6-0.9-1.6-1.5-2.7-1.5
		c-1,0-1.6,0.4-1.6,1.1c0,0.9,0.8,1.2,2.2,1.6C7,15.9,9,16.5,9,18.8c0,1.8-1.3,3.3-4.4,3.3C2.3,22.1,0.8,21,0,19.4L0,19.4z"/>
	<path class="st1" d="M225.4,12.3l-2,6.4c0.6,0.2,1.3,0.4,2,0.4c0.7,0,1.4-0.1,2-0.3L225.4,12.3L225.4,12.3L225.4,12.3z M240.6,10.2
		h-1.4v5.2h1.4c1.9,0,3.4-0.6,3.4-2.6C244,10.8,242.5,10.2,240.6,10.2L240.6,10.2z M241.3,19.8h-2.1v6.1h-9.5l-0.9-2.9
		c-1,0.3-2.1,0.5-3.3,0.5c-1.2,0-2.4-0.2-3.4-0.5l-1,3h-5.8l0.6-1.7c-0.1,0.1-0.2,0.1-0.2,0.2c-1.4,1.2-3.3,1.8-5.5,1.8l-0.3,0
		c-2.6,0-5.1-0.7-7.2-1.9l2-3.9c2.1,1.3,3.5,1.5,5.3,1.5c0.9,0,1.6-0.2,2.1-0.6c0.3-0.3,0.4-0.6,0.4-1c0-1-1.4-1.5-3.2-2
		c-1.4-0.4-3.1-1.1-4.3-2c-1.5-1.1-2.2-2.5-2.2-4.5c0-1.4,0.6-2.7,1.5-3.7c1.4-1.5,3.7-2.3,6.4-2.3h0c2.3,0,5.2,0.7,7.2,1.7
		l-2.2,3.9c-2.3-1.1-3.4-1.2-4.7-1.3c-1.9-0.1-2.9,0.6-2.9,1.3c0,0.9,1.8,1.7,3.5,2.3c2.6,0.8,5.9,1.9,6.4,5.1L222.7,6h5.5l5.6,15.2
		V6l6.4,0c6.1,0,9,2.2,9,6.9C249.2,17.2,246.3,19.8,241.3,19.8L241.3,19.8z M201.7,0v32.1h32.8L266.6,0H201.7L201.7,0z"/>
	<path class="st0" d="M243.5,29.9v-0.7h0.5c0.3,0,0.5,0.1,0.5,0.4c0,0.4-0.3,0.4-0.6,0.4H243.5L243.5,29.9z M243.5,30.2h0.4l0.6,1
		h0.4l-0.7-1.1c0.4,0,0.6-0.2,0.6-0.7c0-0.5-0.3-0.7-0.8-0.7h-0.9v2.4h0.4V30.2L243.5,30.2z M244,32.1c1.1,0,2.1-0.9,2.1-2.1
		c0-1.2-1-2.1-2.1-2.1c-1.1,0-2.1,0.9-2.1,2.1C241.9,31.2,242.8,32.1,244,32.1L244,32.1z M242.3,30c0-1,0.7-1.7,1.7-1.7
		c0.9,0,1.7,0.7,1.7,1.7c0,1-0.7,1.7-1.7,1.7C243,31.8,242.3,31,242.3,30L242.3,30z"/>
</g>
</svg>
