<svg xmlns="http://www.w3.org/2000/svg" viewBox="0 0 95.93 38.59"><defs><style>.cls-1{fill:#fff;}</style></defs><g id="Layer_2" data-name="Layer 2"><g id="main_sponsors" data-name="main sponsors"><path class="cls-1" d="M27.74,17.72a24.24,24.24,0,0,1,44.6,0h0a1.53,1.53,0,0,0,3-.52,1.5,1.5,0,0,0-.11-.58h0a27.35,27.35,0,0,0-50.31,0,1.48,1.48,0,0,0-.11.58,1.53,1.53,0,0,0,3,.52Z"/><path class="cls-1" d="M14,33.49a.6.6,0,0,1-.64.42h-2c-.33,0-.5-.09-.58-.42L8.82,26.31a20,20,0,0,1-.39-2.42A15.21,15.21,0,0,1,8,26.31L6.12,33.49a.58.58,0,0,1-.64.42H3.42c-.33,0-.5-.09-.58-.42L0,23.17a.43.43,0,0,1,.45-.57H1.77a.55.55,0,0,1,.64.47L4.2,30.44A21.18,21.18,0,0,1,4.53,33c.14-.78.25-1.69.47-2.49L7,23a.62.62,0,0,1,.67-.45H9.27a.67.67,0,0,1,.7.47l2,7.4A19.25,19.25,0,0,1,12.42,33c.11-.78.22-1.69.39-2.49L14.45,23a.6.6,0,0,1,.67-.45h1.23a.41.41,0,0,1,.45.54L14,33.49Z"/><path class="cls-1" d="M24.85,24c-1.92,0-3,1.38-3,4.2s1.06,4.29,3,4.29,3-1.4,3-4.29-1.06-4.2-3-4.2Zm.05,10c-3.23,0-5.35-2.22-5.35-5.84s2.12-5.78,5.35-5.78,5.29,2.18,5.29,5.78S28.14,34,24.9,34Z"/><path class="cls-1" d="M40.6,24.19a.58.58,0,0,1-.81.42,7.36,7.36,0,0,0-1.56-.26c-.81,0-1.9.92-1.9,3v6.13a.55.55,0,0,1-.58.47H34.69a.55.55,0,0,1-.58-.47V23.07a.53.53,0,0,1,.58-.47h.64a.57.57,0,0,1,.59.35l.39,1.27a3.83,3.83,0,0,1,3.12-1.81c.89,0,1.59.35,1.45.82l-.28,1Z"/><path class="cls-1" d="M61.82,24a2.07,2.07,0,0,0-1.86.91,6.18,6.18,0,0,0-.7,3.34c0,3,.78,4.24,2.54,4.24s2.73-1.37,2.73-4.19-1-4.3-2.7-4.3Zm4.24,9.85h-.58c-.42,0-.64-.14-.72-.47l-.22-.94A3.58,3.58,0,0,1,61.26,34c-2.87,0-4.37-2-4.37-5.76,0-2.33.39-3.48,1.34-4.55a4.2,4.2,0,0,1,3.12-1.27,3.51,3.51,0,0,1,3.12,1.67V17.7a.53.53,0,0,1,.59-.47h1a.53.53,0,0,1,.59.47V33.35a.55.55,0,0,1-.59.47Z"/><path class="cls-1" d="M53.39,33.92h-1.7a.83.83,0,0,1-.67-.4l-4.29-5.45v5.38a.55.55,0,0,1-.59.47h-1a.55.55,0,0,1-.58-.47V17.77a.53.53,0,0,1,.58-.47h1a.53.53,0,0,1,.59.47V27.86L51.15,23a.85.85,0,0,1,.72-.35h1.5c.39,0,.53.33.31.56L49,27.89l4.71,5.47c.2.23.08.56-.31.56Z"/><path class="cls-1" d="M83,23.07c-.12-.26.18-.46.5-.46h1.31a.74.74,0,0,1,.73.46l2.59,6.84a7.07,7.07,0,0,1,.29,1.18c.09-.35.26-1,.47-1.6L91,23a.66.66,0,0,1,.71-.44H93c.32,0,.59.21.5.46L89.18,35.49a4.45,4.45,0,0,1-2.77,2.83l-.62.23a.68.68,0,0,1-.76-.21l-.41-.65a.51.51,0,0,1,.29-.65l.44-.16a4.12,4.12,0,0,0,2.26-3.13L83,23.07Z"/><path class="cls-1" d="M75.53,32.43c-1.93,0-2.76-1.34-2.76-4.23S73.61,24,75.53,24s2.83,1.39,2.83,4.21-.91,4.23-2.83,4.23Zm.05-10c-3.24,0-5.13,2.19-5.13,5.79S72.4,34,75.42,34h0a3.24,3.24,0,0,0,2.95-1.6l.22,1c.08.33.31.47.73.47h.58a.55.55,0,0,0,.59-.47V28.17h0c0-3.6-1.67-5.75-4.91-5.75Z"/><path class="cls-1" d="M94.19,32.2h.2a.47.47,0,0,0,.26-.06.2.2,0,0,0,.08-.18.22.22,0,0,0-.09-.19.51.51,0,0,0-.28-.06h-.18v.49Zm.25-.75a1,1,0,0,1,.54.12.41.41,0,0,1,.18.36.43.43,0,0,1-.1.28.5.5,0,0,1-.27.16l.38.75h-.46l-.32-.69h-.2v.69h-.41V31.45Zm-.51-.3a1.15,1.15,0,0,0-.4.27,1.26,1.26,0,0,0-.29.42,1.24,1.24,0,0,0-.1.49,1.26,1.26,0,0,0,.09.48,1.24,1.24,0,0,0,.27.41,1.3,1.3,0,0,0,.41.29,1.22,1.22,0,0,0,.48.1,1.28,1.28,0,0,0,.48-.1,1.32,1.32,0,0,0,.42-.28,1.23,1.23,0,0,0,.28-.4,1.2,1.2,0,0,0,.1-.47,1.32,1.32,0,0,0-.09-.5,1.28,1.28,0,0,0-.68-.7,1.3,1.3,0,0,0-.49-.1,1.22,1.22,0,0,0-.48.09ZM95,30.92a1.57,1.57,0,0,1,.5.34,1.47,1.47,0,0,1,.32.48,1.53,1.53,0,0,1,.11.58,1.46,1.46,0,0,1-.12.59,1.41,1.41,0,0,1-.33.49,1.63,1.63,0,0,1-.5.33,1.49,1.49,0,0,1-.58.11,1.54,1.54,0,0,1-.58-.12,1.61,1.61,0,0,1-.5-.34A1.5,1.5,0,0,1,93,32.9a1.47,1.47,0,0,1-.11-.57,1.64,1.64,0,0,1,.06-.41,1.61,1.61,0,0,1,.17-.38,1.51,1.51,0,0,1,.54-.54A1.56,1.56,0,0,1,95,30.92Z"/></g></g></svg>